<?xml version="1.0" encoding="utf-8"?>
<!-- Generator: Adobe Illustrator 23.0.4, SVG Export Plug-In . SVG Version: 6.00 Build 0)  -->
<svg version="1.1" xmlns="http://www.w3.org/2000/svg" xmlns:xlink="http://www.w3.org/1999/xlink" x="0px" y="0px"
	 width="1020.1px" height="809.4px" viewBox="0 0 1020.1 809.4" style="enable-background:new 0 0 1020.1 809.4;"
	 xml:space="preserve">
<style type="text/css">
	.st0{fill:#FFFFFF;}
	.st1{fill:#B5DBCC;}
	.st2{fill:none;stroke:#000000;stroke-width:0.5;stroke-linecap:round;stroke-linejoin:round;}
	.st3{fill:#D7C7D7;}
	.st4{fill:#F9C6AC;}
	.st5{fill:#F4A49F;}
	.st6{fill:#583B3E;}
	.st7{fill:none;}
	.st8{fill:none;stroke:#583B3E;stroke-miterlimit:10;}
	.st9{fill:#D3A19B;}
	.st10{fill:#CE637D;}
	.st11{fill:#8CC9A9;}
	.st12{fill:#E9C4A9;}
	.st13{fill:none;stroke:#583B3E;stroke-width:0.5;stroke-miterlimit:10;}
	.st14{fill:none;stroke:#583B3E;stroke-width:4;stroke-miterlimit:10;}
</style>
<g id="mae">
	<path class="st0" d="M119.2,706.5l5.4,9.8l1.3,11l10.1,18.2l4.1,5.5h3.5l7.5,3.4l6.3-5l8.6-10.1l6.3-11.3l5.2-9.3l-6.3-4.5
		l-3.7-2.3l2.1-3.1l18.3-31.2l17.9-25.2l22.1-25.4l17.4-19.2l24.2-35.1l15.7-33.1l22.1-53.4l17.1-40l9.9-23.5l2.7-1.7l3,14.7
		l-1.4,28.1l12.1,16l10.9,7.6l19.8,6.2l4.4,0.5l-8.7,8.7l-8.6,12.2l-9.2,25.8l-3,19.2l0.4,39l4.6,28.2l9.3,29l19.1,26.2l27.7,20.9
		l19.1,10.3l32.8,7l38.6-7.7l23.4-8.6l11.4-6.2l48.8,2l4.2,0.8l0.5-25.8l25.4-14l63-30.1l13.1-5.1l4.6,2.4l-1.4-22.9l-1.8-12.7
		c0,0-3.4-0.2-7.2-7.8s-8.1-20.1-8.1-20.1l-6.1-15.6l-9.8-15.6l-6.7-9.5l-0.4-2.8l1.4-6.3l2.7-3.4l-5.5-7.2l-5.3-7.5l-2.6-9.7
		l-0.3-8l1.9-2.9l-2.6-2.5L638.9,448l-15.4-31.9l-15-30.4l0.9-13.8l5.6-64v-25.1l-9.5-47.7l-9.3-16.6l-25.4-13.1l-17.3-3.9
		l-12.9,0.5l-29,37l-57.9,28.8l-30.3,15.3l-64.9,15.1l-39.3-16.9l-10.6-0.2l-3.6,7l-8.8,10.9l-5.8,5.4l-10,8.8l-4.2,6.6l-4.7,16.7
		l-4.7,17.3l-5,18.7l-6.7,19l-7.8,23.1l-6.4,24.1l-5.4,18.9l-5,21.5l-4.9,15.8l-8.4,13.6l-17.3,24.6l-12.4,21.4l-13.2,23.3
		l-7.3,16.4l-9,23.8l-10,26.2l-9.8,27.9l-7.2,24.7c-0.2,0.6-0.4,1.2-0.7,1.7l-1.3,2.3c0,0-4.4,1-4.8,1.1s-5.2,3.3-5.2,3.3V706.5z"/>
	<path class="st1" d="M294,311.2l32.1-28.1l20.5,14c0,0-12.1,18.9-21.4,19.3c-9.3,0.4-26,1.7-28.3,3.2
		C294.7,321.1,294,311.2,294,311.2z"/>
	<path class="st1" d="M358.3,555.8c-0.7,0.4-2.5,29-1.1,42.3c1.5,13.3,1.9,20.3,1.9,20.3s34.7-8.7,56.5-7.2
		c21.8,1.5,18.2,0.4,30.7-0.4c12.5-0.8,50.4-12.7,59.6-9.8c9.2,2.9,24.5,2.7,24.5,2.7l-3.9-36l0.2-20.5c0,0-61.7,2-74.4,0
		C439.6,545.1,366.8,550.6,358.3,555.8z"/>
	<path class="st2" d="M702.4,624.7l0.2,1.2c-0.6,1-1.3,1.6-2,1.9c0.1-0.9,0.3-1.9,0.4-2.8c0.1-0.3,0.1-0.7,0.1-1.1
		C701.6,624.2,702,624.4,702.4,624.7z"/>
	<path class="st2" d="M547.8,201.1l0,1l-0.6-0.5C547.4,201.4,547.6,201.3,547.8,201.1L547.8,201.1z"/>
	<path class="st2" d="M545.9,200.1c-0.1,0-0.2,0.1-0.3,0.1l-0.3-0.2l0,0L545.9,200.1z"/>
	<path class="st2" d="M460.5,195.5c0,0,0.1,0,0.1,0c-0.1,0.1-0.1,0.1-0.2,0.2c0,0,0,0,0,0c0,0,0-0.1,0-0.1L460.5,195.5
		C460.5,195.5,460.5,195.5,460.5,195.5z"/>
	<path class="st2" d="M457.1,196.3c-0.1,0.3-0.1,0.6-0.2,0.9l-0.7-0.8C456.5,196.4,456.8,196.3,457.1,196.3z"/>
	<path class="st2" d="M436.6,169.4l-1.3,0.2c-0.3-2.9-0.3-5.8,0.3-8.7c0.1-0.3,0.1-0.5,0.2-0.7c0.3,1.5,0.5,3.1,0.8,4.6
		C436.5,166.3,436.5,167.8,436.6,169.4z"/>
	<path class="st2" d="M423.1,209.1c0.1,0.5,0.2,0.9,0.2,1.4c-0.1-0.1-0.3-0.2-0.4-0.2C423,209.9,423,209.5,423.1,209.1z"/>
	<path class="st2" d="M418.5,702.4l-0.7,2.3c-1-0.6-1.9-1.2-2.9-1.9l0.4-1.3L418.5,702.4z"/>
	<path class="st2" d="M388.7,185.4c0.1,0.1,0.1,0.2,0.2,0.3c-0.8-0.3-1.7-0.6-2.5-0.8c0-0.2,0-0.4,0.1-0.6h1.3
		c0.1,0.1,0.2,0,0.3,0.2c0.1,0.1,0.2,0.2,0.3,0.3C388.3,184.9,388.5,185.1,388.7,185.4z"/>
	<path class="st2" d="M373,658.9l0.7,1.1c-0.6,0.4-1.2,0.7-1.9,1.1l-0.5-0.8l-0.2-0.5C371.7,659.5,372.4,659.2,373,658.9z"/>
	<path class="st2" d="M335.6,418.3l1.2,0.5c-0.3,1.4-0.6,2.9-1.1,4.3c-0.3-1.1-0.7-2.2-1.1-3.3C334.9,419.3,335.2,418.8,335.6,418.3
		z"/>
	<path class="st2" d="M237.1,452c0.1,1.9,0.1,3.7,0.1,5.6l-1.3,0c0-0.4,0-0.8,0-1.2L237.1,452z"/>
	<path class="st2" d="M236.9,168.7c0,0.3,0,0.5,0.1,0.8c-0.2-0.1-0.5-0.1-0.7-0.2L236.9,168.7z"/>
	<path class="st2" d="M235.4,619.6l-0.4,1.5c-0.6,0.7-1.2,1.4-1.8,2l1-3.9L235.4,619.6z"/>
	<path class="st2" d="M229.9,640.5l-0.2,0.9l-0.6-0.8C229.3,640.6,229.6,640.5,229.9,640.5z"/>
	<path class="st3" d="M335.8,420.3l-52.3,123l-16.7,34.3l-20.5,29L233.9,620l-4.8,21.2l64.3,0.7l21.7,16.5l19.2,7.3
		c0,0,28.5-2.7,29-2.7s10.4-3,10.4-3l-14.9-44.6l-1.3-41l3-41.2l17-31.5l9.8-7.9l-8.4-1.1l-19.5-6.3L341.8,468l-3.6-6.4l2.9-21.1
		l-2.1-14.5L335.8,420.3z"/>
	<polygon class="st4" points="541.6,698.1 539.9,720.7 533.1,730.4 519.4,746.8 504.3,759.8 472.2,783.2 471.2,787.5 472.6,793.9 
		480.4,798.9 491.6,800.2 501.9,795 525.9,774.2 526.2,778.2 524.8,786.7 519.7,793.9 515.1,798.6 517.1,803.7 521.2,806.3 
		531.3,807.3 541.6,804.6 548.2,799.4 552.2,790.3 556.1,778.3 557.8,777.3 559.4,778.3 561.5,785.7 565.2,803 585.1,803.7 
		596.6,801.8 607.4,789.5 609.3,755 599.3,726.3 596.1,700.6 596.6,697.5 539.8,687.7 	"/>
	<path class="st4" d="M314,276c0,0,53,43.6,67.9,41.7c14.9-1.9,44.8-15.3,51.7-25.2c7.9-11.4-0.4-46.4-0.4-46.4l-33.2-15L314,276z"
		/>
	<path class="st5" d="M68,769.8c-1,0.1-7-2.9-7.7-3.5c-0.7-0.6-3.8-3.5-7.1-3.3s-29.2,3.1-29.8,5.3c-0.6,2.2,11.3,5.9,15.2,5.9
		S68,769.8,68,769.8z"/>
	<path class="st1" d="M382.4,672.3c0,0,43,10,49.6,9.7c6.7-0.3,33.4-5.4,38.6-5.9c5.2-0.5,38.2,0.7,41.2-0.1c3-0.8,12.4-2,12.4-2
		l2.9,6.3l5.6,5.3c0,0,3.8,2.1,4,2c0.2-0.2,2.9,0,2.9,0l1.2,11.5l-10,5.8l-27.4,9.2l-28.4,6.2l-19.6-2.4l-18.1-5.4l-29.4-16.2
		l-20.4-17.1L382.4,672.3z"/>
	<path class="st1" d="M598,672.6l1.7-26.3c0,0,36.3-29,50.7-34.4s38.8-12.5,41.7-12.1c2.9,0.5,9,1.9,9,1.9l1.4,19.7
		c0,0,1.2,3.5-2.9,4.8s-31,11.4-35.3,13.8C660.2,642.3,605.5,668.3,598,672.6z"/>
	<path class="st1" d="M316,365.4c0.2,0.4,64.9,8.5,79.5,5.2s33.8-8.8,40.3-8.7s33,0,33,0l-1.4,35.2c0,0-45.6,3-51.5,2.3
		s-25.9-1.1-28.5,0.1c-2.6,1.2-42.1,13-44.3,13.6c-2.2,0.6-7.4,3.2-7.4,3.2l-20.9-50.6L316,365.4z"/>
	<path class="st1" d="M340.3,438.2l-2.3,22.6c0,0,10.2,4.1,15.9,4.3s50.7-19.5,56.2-22s23.9-6.1,29.2-6.3c5.3-0.2,31.1,3.8,31.1,3.8
		s-5.7-22.4-6.3-22.3c-0.6,0.1-47.8,6.2-53.5,6.9s-23.5,11.8-30.9,11.4C372.3,436.1,340.3,438.2,340.3,438.2z"/>
	<path class="st1" d="M366,529.1c0,0-0.3-13.8,32.3-18.5c32.7-4.8,59.3-6.7,66.3-5.4c7,1.3,5.7-20.3,5.7-20.3l-11.4-10.9
		c0,0-14.2-6.2-24.3-4.1c-10.1,2.1-46.6,19.2-55.7,30.9c-9,11.7-15.1,28.4-15.1,28.4H366z"/>
	<path class="st1" d="M501.9,415.2c0,0.6,2.5,23.9,2.5,23.9l23.9-6.1l0.6-23.4L501.9,415.2z"/>
	<path class="st1" d="M497.9,358.1l1.5,36.4c0,0,27.5-4.7,29.6-7.6s0.5-30.2,0.5-30.2l-0.1-6.9C529.4,349.8,512.5,357.3,497.9,358.1
		z"/>
	<path class="st1" d="M514.1,500.6c0.7,0,13.2,0,13.2,0l0.6-16.8c0,0-19.8-8.2-19.8-7C508.1,478,514.1,500.6,514.1,500.6z"/>
	<path class="st1" d="M603.8,485.5c-0.6,0.3-0.2-25.6,0.4-25.8c0.6-0.2,21.3-40.4,21.3-40.4s9.3,18.6,9.3,19.2
		S629,474.1,603.8,485.5z"/>
	<path class="st1" d="M310,354.4c0,0,0.6-14.3-1.7-21.2c-2.4-7-6.8-12.7-7.1-14.4s-3.6-20.5-3.6-20.5l-3.7,4.1l-10.3,8.3l-6.1,7.1
		l-1.8,6c0,0,12.1,11.2,14.9,11.4s6.7,1.4,8.2,2.4c1.6,1.1,9.4,13.5,10,15.4S310,354.4,310,354.4z"/>
	<path class="st1" d="M528.6,284.9c0,0,1.1-20.1,4.1-26.5c3-6.3,7.6-27.9,13-33.1c5.4-5.2,23.2-20.3,20.5-21.2c-2.7-1-16-4.8-25.7,0
		s-30,19.7-31.4,22c-1.4,2.4-8.6,22.7-6.8,26.3c1.7,3.6,14.7,22,16.3,24.4c1.5,2.5,7.5,9.8,7.6,10.1c0.2,0.3,2.7,6.2,2.7,5.7
		C528.8,292.1,528.6,284.9,528.6,284.9z"/>
	<path class="st1" d="M328.3,436.7c0,0-22.2-18.6-25.4-23.8c-3.2-5.2-13.5-30.8-18.4-33.7c-4.9-2.9-20.2-9.5-20.2-9.5l-13.8,38.1
		c0,0,8.7,4.3,13.7,12.8c5.1,8.5,9.7,17.6,15.4,18.7s16.1,8,18.2,10.1c2.1,2.1,18.4,16.9,18.4,16.9L328.3,436.7z"/>
	<path class="st1" d="M233.3,469c0,0,25.8,2.9,28.8,7.9c3,5.1,18.6,17.1,22.6,19.7s15.9,7,15.9,7l-11.2,25.8c0,0-12.6,0.6-16.2-2.7
		s-13.1-9.3-19.3-12.3c-6.1-3-17.5-2.3-20.5-5.1c-3-2.7-10.1-10.1-10.1-10.1s6.6-14.6,7.8-18.2C232.2,477.5,233.3,469,233.3,469z"/>
	<path class="st1" d="M267.2,576.2c0,0-25.8-10.2-31.7-17.6S221.1,537,217.7,534c-3.4-3-11.7-8.3-11.7-8.3s-11.1,16.3-11.4,17.1
		c-0.3,0.8-6.6,10.8-6.6,10.8s13.6,18.9,18.6,20.3c5,1.4,11,2,14.8,4.8c3.8,2.7,6.1,6,9.3,9.9c3.2,3.9,8.7,12.2,11.9,12.7
		c3.3,0.5,9.3-1,9.3-1L267.2,576.2z"/>
	<path class="st1" d="M172.9,582.7c0,0-7.8,15.2-7.1,16.2c0.6,0.9-3.3,7.9-3.3,7.9s15.4,12.8,19,13.6c3.6,0.8,17.8,5.2,20.6,7.1
		s7,7.8,8.7,9.7s5.7,2.5,5.7,2.5l13.4-14.9c0,0-10.8-15.4-15-17.9c-4.1-2.5-19-11.6-22-14.3c-3-2.7-17.5-14.9-17.5-14.9L172.9,582.7
		z"/>
	<path class="st1" d="M148.5,644.2c0,0,11.1,2.1,15.7,5.6c4.6,3.5,15.5,15.4,17,17.4s7.9,9.4,7.9,9.4l-9.2,14.5c0,0-7.6-5.1-8.2-6
		c-0.6-1-3-7.5-4.8-9c-1.7-1.5-7-3.1-9.4-4.2c-2.4-1.1-13.8-2.9-14.5-3.6c-0.7-0.7-2.1-2.6-2.1-2.6L148.5,644.2z"/>
	<path class="st1" d="M529.1,300.2c0,0,19.3-9.9,25.9-16.5c6.7-6.6,15.9-19.9,25.4-20.6c9.5-0.6,31.4,0,31.4,0l3.6,25.5l-0.9,27.1
		c0,0-19.3-5.2-21.7-5.4s-16.2,4.4-20,5.4s-21.1,7-26.5,7c-5.4,0-17.2,3.3-17.2,3.3V300.2z"/>
	<path class="st1" d="M529.1,389.2c0,0,27-13.6,32.4-14.6s23.9,2.7,28.1,3.5c4.1,0.8,19.5,3.7,19.5,3.7l2.7-33.4
		c0,0-25.7-3.3-31.6-3.8c-5.9-0.5-24.3,1-27.9,2.5c-3.6,1.6-10.9,9-15,9.8c-4.1,0.8-8.5,1.4-8.5,1.4L529.1,389.2z"/>
	<path class="st1" d="M527.9,440.1c0,0,29.2-0.2,34.9-1.1s22.2-3.7,26.3-5.3c4.1-1.6,17-5.7,17-5.7l-2.3,39.1c0,0-23.9-3.2-29.8-1.5
		s-20,2.7-24.6,3.3c-4.6,0.6-21.6,1.8-21.6,1.8V440.1z"/>
	<path class="st1" d="M526.8,521.5c0,0,19.2-6.5,25.2-7.3c6-0.8,22-2.4,31.7-2.4c9.7,0,24.3-3.5,24.3-3.5l5.9,33.5v14.1
		c0,0-21.2,4.3-23.8,3.8c-2.5-0.5-19.7-8.6-23.8-8.7c-4.1-0.2-23.9,5.6-28.9,6.7c-5,1.1-11.1,0.2-11.1,0.2L526.8,521.5z"/>
	<path class="st1" d="M602.5,628.9c0,0-27.4-10.3-30.8-12.2s-12.5-5.7-20.6-5.7c-8.1,0-19.6,1.6-19.6,1.6s1.8,26.1,2.8,26.2
		c1.1,0.1,21.7,5.4,25.4,5.2c3.6-0.2,14.3,7.9,17.9,9c3.6,1.1,22.2,4.3,22.2,4.3L602.5,628.9z"/>
	<path class="st1" d="M611.8,578.7c0,0,7.6-12.7,29.2-21.6c21.6-8.9,41.5-38.4,41.5-38.4l-38.1-56.6c0,0-8.2,44-18.4,48.6
		c-10.1,4.6-14.3,16.3-14.3,16.3V578.7z"/>
	<polyline class="st3" points="477.9,53.7 376.1,3 331.1,4 279.8,18 245.8,41.7 228.1,74.3 219.4,109.3 219.4,142.3 225.1,203.7 
		230.4,282 233.1,342.3 235.7,432.2 236.6,455.5 252.8,401.9 264.3,365.4 273.6,332.2 277.9,317.3 286.1,308.5 296.9,299.5 
		311.8,279.3 275.3,245.7 251.1,216.3 360.8,198.3 411.8,218 420.1,211.7 434.4,257.7 438.3,286.8 440.7,343.3 444.2,418.7 
		445.4,428.9 451.6,469.3 456.4,503.7 461.9,525.5 470.4,561.3 476.6,586.4 481.2,595 494.3,609.8 500.8,615.8 508.7,627.4 
		511.4,634.2 511.9,636.2 513.4,636.7 515.6,633.7 517.4,623 518.4,613.3 519.8,588.5 520.8,576.7 520.9,567.2 519.4,525.7 
		512.6,465.3 504.9,397.5 502.3,356.3 503.3,314.8 504.1,293.2 510.1,252.2 520.4,232.2 533.7,214.4 548.2,201.8 545.4,199.5 
		526.2,207.8 519.3,212.1 504.3,210.2 489.7,200.9 480.9,143.2 	"/>
	<path class="st4" d="M437.1,175.3l-1.5-13.1l4.9-6.4l9.8-8.4l11-0.5l11.6,4l11.1,14.2c0,0-2.8,25.5-2.8,25.8s-5.8,13.7-5.8,13.7
		l-11.5,8.3l-14.3-1.8l-8.2-8.6l-1.6-8.6L437.1,175.3z"/>
	<path class="st6" d="M376.8,282.9l15.8,0.8l41.9-29.3c0,0-6-37.9-8.4-43.4c-1.8-4.1-9.8-4.7-11.5,3.6c-1.7,8.3-28.3,51.7-32.3,57.4
		S376.8,282.9,376.8,282.9z"/>
	<path class="st7" d="M557.6,782.5c-0.3,0.7-0.5,1.5-0.8,2.3c-0.6,2-1.2,4-1.9,5.9c-0.7,2-1.3,4-2.3,5.9c-1.9,4-5.1,7.4-8.9,9.5
		c-3.9,2-8.2,3.1-12.4,3.2c-2.1,0.1-4.3,0-6.4-0.2c-0.5-0.1-1.1-0.1-1.6-0.3c-0.5-0.1-1.1-0.2-1.6-0.3c-1.1-0.3-2.2-0.7-3.1-1.3
		c-1.9-1.3-3.4-3.1-4.3-5.1c-0.5-1-0.8-2.1-0.9-3.4c0-0.4-0.1-0.7,0.4-1.4l0.7-0.6c0.4-0.3,0.7-0.7,1.1-1c1.4-1.4,2.9-2.9,4.2-4.5
		c1.3-1.6,2.6-3.2,3.5-4.9c0.7-1.6,1.1-3.8,1.3-5.8c0.2-1.5,0.4-3.1,0.5-4.6c0.1-0.5,0.1-1,0.1-1.5v-0.1l1.1,0.5
		c-0.4,0.4-0.8,0.7-1.2,1.1c-3.5,3.2-7.1,6.4-10.7,9.5c-4,3.5-8,6.9-12.3,10.1c-1.1,0.8-2.2,1.6-3.3,2.3c-0.6,0.4-1.2,0.7-1.7,1.1
		c-0.6,0.3-1.3,0.7-1.9,0.9c-2.6,0.8-5.3,1.2-8.1,1.1c-1.4-0.1-2.7-0.3-4-0.6c-0.7-0.1-1.3-0.3-2-0.5c-0.7-0.2-1.3-0.5-1.9-0.7
		c-2.5-1.2-4.7-2.7-6.8-4.3l0,0l-0.1-0.1l-0.1-0.2c-0.5-1.4-1-2.8-1.2-4.2c-0.3-1.4-0.4-3-0.2-4.5c0.2-1.5,1-3.1,2.4-4
		c1.2-0.8,2.4-1.5,3.6-2.3c4.7-3.2,9.3-6.6,13.9-10.1c9.1-7,18-14.1,26.6-21.7c1.1-1,2.1-1.9,3.1-2.9c1-1,1.9-2.1,2.8-3.2
		c1.9-2.2,3.7-4.4,5.5-6.6c1.8-2.2,3.6-4.5,5.3-6.7c1.7-2.3,3.5-4.6,4.8-7l0.2-0.4l0.1-0.4c0.1-0.3,0.2-0.6,0.2-0.9
		c0.1-0.7,0.2-1.4,0.2-2.1c0.1-1.4,0.2-2.8,0.2-4.2c0.1-2.9,0-5.7-0.1-8.6c0-1.3-0.1-2.7-0.1-4c0-0.5,0-1-0.1-1.5
		c-0.2-3.8-0.4-7.6-0.6-11.5"/>
	<path class="st6" d="M566.5,800.5l0.2,0.4l0.3,0.4l0.2,0.2l0.3,0.1l0.5,0.2l0.2,0.2c1,0.1,2,0.1,3,0.1c4.1,0.1,8.2-0.1,12.3-0.4
		c0.6,0,1.2-0.1,1.8-0.1c0.5,0,1.1-0.1,1.6-0.1c0.9-0.1,1.9-0.2,2.8-0.3c1-0.1,2-0.3,2.9-0.4l0.7-0.1c0.2-0.1,0.3-0.1,0.4-0.2
		c0.3-0.1,0.7-0.4,1.1-0.6c3.1-2.3,6.1-5.2,8.7-8.2c0.3-0.4,0.6-0.8,0.9-1.1c0.4-0.5,0.4-0.5,0.6-0.9c0.3-0.7,0.5-1.7,0.7-2.6
		c0.4-1.9,0.6-3.9,0.7-6c0.3-4.1,0.4-8.2,0.4-12.3c0-4.1-0.1-8.3-0.3-12.3c0-0.5-0.1-1-0.1-1.3l-0.1-0.5L606,754l-0.9-2.9l-1.9-5.9
		c-1.3-4-2.5-8-3.6-12s-2.2-8.1-3.1-12.2c-0.9-4.1-1.6-8.3-2-12.6c-0.6-8.5-0.3-16.8,0.1-25.2c0.2-3.4,0.4-6.8,0.7-10.1
		c0.4-4.9,0.8-9.9,1.3-14.8c0.9-8.3,1.9-16.5,3.1-24.8c1.2-8.2,2.5-16.5,4.1-24.6c0.7-4.1,1.6-8.2,2.5-12.3l1.2-6l0.6-3
		c0.2-1,0.3-2,0.5-3l0.9-6.1l0.6-6.1c0.2-2,0.3-4.1,0.4-6.1c0.1-2,0.3-4.1,0.3-6.1c0.4-16.4-1.1-32.9-3.8-49.1
		c-0.7-4-1.5-8.1-2.3-12.1l-1.3-6.1c-0.2-1-0.5-2-0.6-3.2c-0.2-1.2-0.2-2.2-0.3-3.3c-0.2-4.2-0.1-8.4-0.1-12.6
		c0.1-4.2,0.3-8.3,0.4-12.5c0.7-16.6,1.9-33.2,3.1-49.7c0.7-8.8,1.3-17.6,2-26.4c0.6-7.8,1.2-15.5,1.9-23.3
		c1.4-16.5,2.9-33.1,4.4-49.6l0.2-3.1l0.1-3.1c0.1-2.1,0.1-4.1,0.1-6.2c0-2.1-0.1-4.1-0.2-6.2c-0.1-2.1-0.2-4.1-0.4-6.2
		c-0.5-5.9-1.2-11.8-2.2-17.7c-0.4-2.3-0.8-4.5-1.2-6.8c-0.8-4-1.7-8-2.7-12c-1-4-2.1-7.9-3.3-11.8c-0.3-1-0.6-1.9-1-2.9
		c-0.3-1-0.6-1.9-1-2.9l-1-2.9c-0.4-0.9-0.7-1.7-1.2-2.5c-0.9-1.6-1.9-3.2-3.2-4.7c-1.2-1.5-2.6-2.9-4.1-4.1
		c-6-5-13.3-8.7-20.9-11.5c-3.8-1.4-7.7-2.6-11.7-3.6c-3.9-1-7.9-1.7-11.9-2.1c-0.1,0-0.1,0-0.2,0v-1.1v-0.1c0.1,0,0.1,0,0.2,0
		c4.1-0.3,8.3,0,12.4,0.6c4.2,0.6,8.3,1.5,12.4,2.7c4.1,1.2,8.1,2.7,11.9,4.5c3.9,1.9,7.6,4.1,10.9,6.9c3.4,2.8,6.4,6.2,8.5,10.2
		c0.5,1,1,2,1.4,3.1l1.1,3c0.2,0.4,0.3,0.9,0.4,1.3c0.2,0.6,0.4,1.3,0.6,1.9c0.3,0.9,0.6,1.9,0.9,2.8c1.2,4,2.3,8.1,3.1,12.2
		c0.9,4.1,1.6,8.2,2.3,12.4c0.4,2.3,0.7,4.5,0.9,6.8c0.1,0.6,0.1,1.1,0.2,1.7c1.6,13.8,1.8,27.7,0.5,41.5c-1.8,16.5-3.1,33-4.4,49.6
		c-0.6,7.9-1.2,15.7-1.7,23.6c-0.1,1-0.1,1.9-0.2,2.8c-1.7,24.3-3,48.6-3.8,72.9c-0.1,4.1-0.2,8.3-0.2,12.4c0,4.1,0,8.3,0.2,12.3
		c0.1,1,0.2,2,0.3,2.9c0.1,0.8,0.4,1.9,0.6,2.9l1.4,6.1c0.9,4.1,1.8,8.2,2.5,12.3c1.5,8.2,2.7,16.5,3.4,24.8
		c0.7,8.3,1.1,16.7,0.9,25.1c0,2.1-0.1,4.2-0.2,6.3c-0.1,2.1-0.2,4.2-0.4,6.3l-0.6,6.3l-0.9,6.3c-0.2,1-0.3,2.1-0.4,3.1l-0.6,3.1
		c-0.4,2.1-0.8,4.1-1.2,6.2c-0.8,4-1.7,8.1-2.5,12.1c-1.6,8.1-3,16.3-4.2,24.4c-1.3,8.2-2.3,16.4-3.2,24.6
		c-0.5,4.3-0.9,8.5-1.2,12.8c-0.1,0.6-0.1,1.2-0.1,1.8c-0.3,3.4-0.5,6.7-0.7,10.1c-0.5,8.2-0.8,16.5-0.3,24.6c0.3,4,1,8,1.8,12
		c0.8,4,1.8,8,3,11.9c1.1,4,2.3,7.9,3.6,11.8l1.9,5.9l0.9,3l0.2,0.8c0.1,0.3,0.2,0.6,0.2,1c0.1,0.7,0.1,1.2,0.2,1.8
		c0.2,4.2,0.2,8.4,0.2,12.6c-0.1,4.2-0.2,8.4-0.6,12.6c-0.2,2.1-0.4,4.2-0.8,6.4c-0.2,1.1-0.5,2.2-1,3.4c-0.2,0.6-0.8,1.4-1.1,1.7
		c-0.3,0.4-0.7,0.8-1,1.3c-1.4,1.6-2.9,3.1-4.5,4.6c-1.6,1.4-3.2,2.8-5,4.1c-0.5,0.3-1,0.6-1.6,0.9c-0.3,0.1-0.7,0.3-1,0.3l-0.8,0.2
		c-1.1,0.2-2.2,0.3-3.2,0.5c-2.1,0.2-4.2,0.4-6.3,0.5c-4.2,0.2-8.3,0.3-12.6,0.2c-1.1,0-2.1-0.1-3.2-0.2l-0.8-0.1l-0.4-0.1l-0.5-0.1
		c-0.2-0.1-0.3-0.1-0.6-0.2c-0.3-0.1-0.6-0.4-0.8-0.5c-0.4-0.4-0.5-0.6-0.7-0.9c-0.7-1.1-1.1-2.1-1.5-3.1c-0.4-1-0.7-2-1-3
		c-1.2-4,0-9.6-1-13.6l-1.2-5.9"/>
	<g>
		<path class="st6" d="M515.6,798.5c0,0.1-0.1,0.3-0.2,0.4L515.6,798.5L515.6,798.5l0,0.2C515.7,798.7,515.7,798.6,515.6,798.5
			l0.1,0.2c0.5,0.5,0.9,0.9,1.3,1.3c0.3,0.5,0.5,1,0.8,1.4c0.6,0.9,1.3,1.8,2.2,2.4c0.4,0.3,0.9,0.6,1.3,0.8
			c0.5,0.2,0.9,0.3,1.6,0.4c0.6,0.1,1.2,0.2,1.8,0.3c0.6,0.1,1.2,0.1,1.8,0.2c1.2,0.1,2.5,0.1,3.7,0.1c1.3-0.1,2.5-0.1,3.7-0.3
			c2.4-0.4,4.8-1.1,7-2.1c2.2-1,4.1-2.4,5.7-4.2c0.8-0.9,1.5-1.9,2.1-2.9c0.6-1.1,1.1-2.2,1.6-3.3c0.9-2.3,1.7-4.8,2.5-7.2l1.3-3.7
			c0.2-0.6,0.4-1.2,0.7-1.8l0.4-0.9l0.5-0.9l0,0c0.1-0.1,0.2-0.3,0.3-0.4l0,0c0.1-0.2,0.3-0.3,0.4-0.4l-0.1,0.1
			c0.2-0.2,0.3-0.3,0.5-0.4c0.2-0.1,0.3-0.2,0.5-0.2l-0.1,0c0.3-0.1,0.4-0.1,0.6-0.1c0.2,0,0.3,0,0.4,0c0.1,0,0.3,0.1,0.4,0.1
			c0.1,0.1,0.3,0.1,0.5,0.3l0,0l-0.1-0.1c0.2,0.1,0.4,0.3,0.6,0.5c0.1,0.1,0.1,0.2,0.2,0.3l0.2,0.4l0,0c0.8,2,1.2,4,1.7,5.9l1.6,5.9
			l1.6,5.9c0.4,1.2-0.1,2.3,0.1,3.1c0.5,1-0.3,2.5,0,2.8l0-0.1l1.2,0.9l0.1,0.4c0.2,0.1,0.3,0.2,0.4,0.3l0.1,0.1l0,0.1
			c0,0.1,0.1,0.2,0.1,0.2c0,0,0,0-0.1,0c-0.1,0-0.2,0.1-0.2,0.1c0,0,0-0.2,0-0.3c0-0.2-0.1-0.3-0.1-0.5l1-0.3
			c0.1,0.2,0.1,0.4,0.2,0.6c0,0.2,0.1,0.4,0,0.8c-0.1,0.2-0.2,0.4-0.5,0.5c-0.3,0.1-0.5,0-0.7-0.1c-0.3-0.2-0.4-0.4-0.5-0.7l0.1,0.2
			c-0.2-0.3-0.5-0.6-0.6-0.9l0.1,0.4l-1.3-1l0,0l0,0c-0.2-0.4-0.2-0.8-0.2-1.1c0-0.3,0.1-0.5,0.1-0.8c0-0.2,0.1-0.5,0.1-0.6
			c0-0.2-0.1-0.3-0.2-0.7c-0.2-1.3,0.3-2.2-0.1-3l-1.6-5.9l-1.6-5.9c-0.5-1.9-1-4-1.7-5.8l0,0l-0.1-0.2c0-0.1-0.1-0.2-0.1-0.2
			c-0.1-0.1-0.2-0.2-0.3-0.3l-0.1-0.1l0,0c0.1,0.1,0,0-0.1,0c-0.1,0-0.2,0-0.3,0c-0.1,0-0.2,0-0.3,0c-0.1,0-0.2,0-0.1,0l0,0l-0.1,0
			c-0.1,0-0.2,0.1-0.3,0.1c-0.1,0-0.2,0.1-0.2,0.1l-0.1,0.1c-0.1,0.1-0.1,0.2-0.2,0.2l0,0l0,0c0,0.1-0.1,0.1-0.1,0.2l0,0l0,0
			l-0.4,0.8l-0.3,0.9c-0.2,0.6-0.4,1.2-0.5,1.8l-1,3.7c-0.7,2.5-1.3,5-2.1,7.5c-0.4,1.3-0.9,2.5-1.5,3.7c-0.6,1.2-1.4,2.4-2.2,3.5
			c-1.8,2.1-3.9,3.9-6.4,5.1c-2.4,1.2-5.1,2-7.7,2.5c-1.3,0.2-2.7,0.3-4,0.4c-1.4,0.1-2.7,0.1-4,0c-1.3-0.1-2.7-0.2-4-0.5
			c-0.6-0.1-1.4-0.3-2.1-0.6c-0.7-0.3-1.4-0.7-2-1.1c-1.2-0.9-2.2-2-3-3.3c-0.4-0.6-0.8-1.3-0.9-2c-0.1-0.7-0.1-1.6,0.3-2.4l0,0.1
			c0-0.2,0.1-0.3,0.1-0.4l0,0.2v-0.1l0.1-0.4c-0.1,0.1-0.1,0.2-0.1,0.3H515.6z"/>
	</g>
	<g>
		<path class="st6" d="M473.5,793.5c1.6,1.2,3.3,2.4,5.1,3.4c0.9,0.5,1.8,1,2.7,1.2c0.9,0.3,2,0.5,3,0.7c2,0.4,4,0.5,6.1,0.3
			c1-0.1,2-0.3,3-0.6c0.5-0.1,1-0.3,1.4-0.4c0.4-0.2,0.9-0.4,1.4-0.6l0,0c2.6-1.6,5.1-3.5,7.5-5.4c2.4-1.9,4.8-3.9,7.1-5.9
			c4.7-4,9.3-8.1,13.9-12.3l0,0l1.4-1.3l0.9-0.8l-0.1,1.2l-0.1,1.5l0,0.1l0,0.1l0,0l0,0l0-0.2c0,1.1,0,2.2-0.1,3.2
			c0,1.1-0.1,2.1-0.2,3.2c-0.1,1.1-0.2,2.1-0.4,3.2c-0.2,1.1-0.5,2.2-0.9,3.3l0,0l0,0c-0.6,1.2-1.2,2.3-2,3.3c-0.7,1-1.5,2-2.3,3
			c-0.8,1-1.6,1.9-2.5,2.9c-0.4,0.5-0.9,0.9-1.3,1.4l-0.7,0.7c-0.1,0.1-0.2,0.3-0.4,0.3c-0.2,0.1-0.4,0-0.7,0l0.2-0.3l-0.5,1.2
			l-0.2,0.4l-0.4,0c-0.1,0-0.2,0-0.3-0.1c-0.1-0.1-0.2-0.3-0.2-0.4c0-0.3,0-0.2,0-0.2l0,0l0-0.1l0-0.1l0.1-0.3l0.2-0.5
			c0.1-0.4,0.2-0.7,0.3-1.1l1,0.3c-0.1,0.4-0.2,0.7-0.3,1.1l-0.1,0.5l-0.1,0.3l0,0.1l0,0.1l0,0c0,0,0,0.1,0-0.2
			c0-0.1-0.1-0.3-0.2-0.4c-0.1-0.1-0.2-0.1-0.3-0.1l-0.5,0.4l0.4-1.3l0.2-0.3c0-0.2,0-0.5,0.1-0.6c0.1-0.1,0.2-0.2,0.3-0.3l0.6-0.6
			c0.4-0.4,0.9-0.9,1.3-1.3c0.8-0.9,1.7-1.8,2.4-2.7c0.8-0.9,1.6-1.9,2.3-2.9c0.7-1,1.4-2,2-3l0,0.1c0.4-0.9,0.7-1.9,0.9-2.9
			c0.2-1,0.3-2,0.5-3.1c0.2-1,0.3-2.1,0.4-3.1l0.3-3.1l0-0.1l0,0l0,0l0,0l0,0.1l0.1-1.5l0.8,0.4l-1.5,1.4l0,0
			c-4.6,4.2-9.2,8.3-13.9,12.3c-2.4,2-4.7,4-7.2,5.9c-2.4,1.9-4.9,3.9-7.6,5.4l0,0l0,0c-0.5,0.2-0.9,0.5-1.5,0.7
			c-0.5,0.2-1,0.3-1.5,0.5c-1,0.3-2.1,0.5-3.1,0.6c-2.1,0.3-4.3,0.1-6.3-0.3c-1-0.2-2.1-0.4-3.1-0.7c-1-0.3-2-0.8-2.9-1.3
			c-1.9-1-3.6-2.2-5.3-3.5L473.5,793.5z"/>
	</g>
	<path class="st8" d="M540.4,687.9c0.3,4.1,0.4,7.9,0.6,11.9c0.1,1.6,0.1,3.1,0.2,4.8c0.1,2.9,0.1,5.7,0,8.6c0,1.4-0.1,2.9-0.2,4.3
		c-0.1,0.7-0.1,1.5-0.3,2.2c0,0.4-0.1,0.7-0.3,1.2l-0.2,0.6L540,722c-1.5,2.6-3.3,4.8-5,7.1c-1.8,2.3-3.5,4.5-5.3,6.8
		c-1.8,2.2-3.6,4.4-5.5,6.6c-0.9,1.1-1.9,2.2-2.9,3.2c-1,1.1-2.1,2-3.2,3c-8.6,7.6-17.6,14.7-26.7,21.7c-4.6,3.5-9.2,6.9-14,10.1
		c-1.2,0.8-2.4,1.6-3.6,2.3c-1,0.7-1.6,1.8-1.8,3.1c-0.4,2.6,0.3,5.4,1.3,7.9"/>
	<path class="st6" d="M535.5,654.9l-4.4-35.7c-1.4-11.4-2.7-22.8-3.9-34.2c-0.6-5.7-1.1-11.4-1.5-17.2c-0.2-2.9-0.3-5.7-0.3-8.7
		l0.1-8.6l1.3-82.9l0.9-54.6l0.8-68.7c0.1-11.4,0.3-22.9,0.2-34.3c-0.2-5.7-0.3-11.5-0.6-17.2c-0.1-2.9-0.3-5.7-0.5-8.5
		c-0.3-2.9-0.3-5.6-0.5-8.5c0.8,1.3,1.2,2.7,1.5,4.1c0.3,1.4,0.5,2.8,0.7,4.3c0.3,2.9,0.4,5.7,0.6,8.6c0.3,5.7,0.4,11.5,0.6,17.2
		c0.1,11.5-0.1,22.9-0.2,34.4l-0.8,68.7l-2.1,137.5l-0.1,8.6c-0.1,2.8,0.1,5.7,0.2,8.5c0.4,5.7,0.9,11.4,1.5,17.1
		c1.2,11.4,2.5,22.8,3.9,34.1l4.5,36.6"/>
	<path class="st8" d="M514.1,470.8c8.1-1.7,11.5-2.6,12.9-3.1c1.3-0.4,0.9-0.5,0.9-0.5"/>
	<path class="st8" d="M386.4,493.8c0,0,0.3-0.2,0.8-0.7c3.8-3,19.7-15.3,29.2-18.8c5.4-2,23.4-7.7,34.8-2.4"/>
	<path class="st2" d="M125.5,717.9c0,0,0.3,0.7,0.9,2c2.5,5.6,9.9,21.8,15.9,29.8c0.2,0.2,0.3,0.4,0.5,0.6"/>
	<path class="st6" d="M128.8,701.2c0,0,0.2,0,0.7,0c3.1,0,16.7,0.7,38.1,10.2c0.2,0.1,0.4,0.2,0.6,0.3"/>
	<path class="st8" d="M23,769.1c0,0-0.2,0,0.3,0.1c4.6,0.6,30.3,2.5,42.2-0.2"/>
	<path class="st8" d="M41.3,764.6c0,0-0.1,0.1,0.5,0.4c2.3,1.3,11.1,3.8,23,4.2c0,0,1.3-0.5,1.3-0.5"/>
	<path class="st6" d="M599.2,698.4l-5.1-0.7l-55.5-9.6c-1.1,0-13.1-0.5-16.8-20.8c-1.1-6-0.3-9.9,2.5-12c6.6-4.9,23.3,2.5,40.3,11.3
		c24.6,12.7,30.2,19.8,30.4,20.1l4.4,4.3L599.2,698.4z"/>
	<path class="st0" d="M594.3,696.4l3.7,0.5l0.1-5.5l-4-4c-0.1-0.1-5.8-7.3-30-19.8c-15.8-8.2-32.8-15.9-38.9-11.4
		c-2.3,1.7-3,5.3-2,10.7c3.7,20.1,15.5,19.8,15.6,19.8l0.1,0l0.1,0L594.3,696.4z"/>
	<path class="st4" d="M418.5,208c0.5,0.2,4,0.9,4.4,1.1c-1,6.1-0.7,7.9-1,14.1c-0.2,0.8-0.1,2.6-0.5,5.2c-0.5,2.1-1.4,3.8-1.7,4.5
		c-0.7,1.4-1.6,2.5-2.5,3.9c-1.7,2.7-3.9,5.1-5.8,7.7c-3.8,5.2-7.7,10.3-11.8,15.3c-2,2.5-4.1,5-6.2,7.5l-3.1,3.7l-1.6,1.8l-0.8,0.9
		l-0.4,0.4l-0.3,0.3c-1.1,0.9-1.9,2.4-3.3,3.2c-1.4,0.8-3.3,2.1-4.8,2.8c-2.9,1.4-5.6,2.6-8.6,3.8c-6,2.4-11.9,3.9-18,5.9
		c-0.8,0.2-1.7,0.6-2.4,0.8c-0.4,0.1-0.6,0.2-1.5,0.4c-0.9,0.1-2.2,0-2.6,0c-1.5-0.1-2.1-0.3-3.6-0.6c-3.1-0.7-6-1.5-9.1-2.2
		c-3.2-0.7-6.2-1.4-9.3-2.3c-3.2-0.8-6.2-1.6-9.3-2.4c-6.3-1.7-12.7-3.2-18.9-4.9c-3.1-0.8-6.2-1.7-9.3-2.7c-1.5-0.5-3-1-4.5-1.6
		c-1.5-0.6-2.8-1.5-4.1-2.4c-5-3.9-9-9.1-12.7-14.4c-0.9-1.3-1.8-2.7-2.7-4c-0.4-0.7-0.9-1.4-1.3-2.1c-0.4-0.7-0.8-1.4-1.1-2.2
		c-0.1-0.4-0.3-0.8-0.4-1.1c-0.2-0.4-0.3-0.8-0.5-1.2c-0.4-0.8-0.9-1.5-1.4-2.2c-1.1-1.3-2.3-2.3-3.3-3.5c-2.2-2.3-2-4.6-3.9-7.2
		c-0.5-0.6-0.2-1.7-0.6-2.4c-0.5-0.7-1-2-1.4-2.6c-0.7-1.3-0.6-2.9-1.1-4.4c-1-3-2-6-2.6-9.1c-0.6-3.2-1.8-6.8-2.2-10
		c-0.9-6.4-3.1-11.6-4.3-17.9c-1.1-6.1-0.9-12.4-1.3-18.5c1.4,0.4,2.8,1.1,4.1,1.8c1.6,0.8,3.1,1.8,4.7,2.7c3.1,1.9,6.1,4,9.1,6.1
		l18,12.7c3,2.1,6.1,4.2,9.4,6.1c0.8,0.5,1.7,1,2.6,1.4c0.5,0.2,1,0.5,1.6,0.7c0.2,0.1,0.4,0.1,0.6,0.2l0.4,0.1l0.8,0.1
		c2.1,0.3,4,0.2,6,0.2c3.8-0.2,7.6-0.6,11.3-1.2c3.7-0.6,7.4-1.4,11.1-2.4c3.7-1.1,7.1-2.5,10.6-3.8l10.3-3.9
		c6.9-2.6,13.7-5.2,20.7-7.3c3.5-1,7-2,10.4-2.4c0.9-0.1,1.6-0.1,2.4,0c0.9,0.2,1.7,0.3,2.6,0.5c1.8,0.4,3.5,0.9,5.3,1.4
		c2.5,0.7,4.9,1.5,7.4,2.3c0,0.1,0,0.1,0,0.1c0,0.2,0.1,0.4,0.1,0.5c0.1,0.3,0.2,0.6,0.3,1c0.3,0.6,0.6,1.1,1,1.7
		c0.7,1.1,1.4,2.1,2.2,3.1c1.5,2,3.2,3.9,5,5.6c1.8,1.7,3.8,3.3,6.1,4.6c2.3,1.3,4.6,2.1,6.9,3C412.6,206.2,414.2,206,418.5,208z"/>
	<path class="st2" d="M393.6,227.7L393.6,227.7c-1.8,0.2-3.6,0.7-5.3,1.3c-0.4,0.2-0.8,0.3-1.3,0.5c-0.2,0.1-0.4,0.2-0.7,0.4
		c-0.3,0.2-0.4,0.3-0.6,0.5c-0.7,0.6-1.3,1.3-2,1.9c-2.6,2.4-5.5,4.3-8.7,5.2c-1.6,0.5-3.3,0.7-5,0.7c-1.7,0.1-3.4-0.1-5-0.4
		c-3.3-0.8-6.4-2-9.6-3.9c1.8,3.3,5.4,5.5,9,6.4c3.7,0.9,7.6,0.9,11.3-0.3c3.7-1.2,6.8-3.6,9.3-6.3c0.6-0.7,1.2-1.4,1.8-2
		c0.1-0.1,0.3-0.3,0.4-0.4c0.1-0.1,0.3-0.2,0.5-0.3c0.4-0.2,0.8-0.4,1.2-0.6C390.5,229.5,392.1,228.7,393.6,227.7z"/>
	<path class="st2" d="M368.9,209.4c3-0.9,6-2.3,8.5-4.9c-1.8-0.6-3.4-0.9-5-1c-1.6-0.1-3.2,0-4.7,0.2c-1.5,0.2-3,0.5-4.5,0.8
		c-1.5,0.3-3,0.6-4.5,0.9c-3,0.6-5.9,1.4-9,1.9c-3,0.5-6,0.5-9.2,0.4c1.3,1.1,2.9,1.6,4.4,2c1.6,0.4,3.2,0.5,4.8,0.8
		c3.2,0.4,6.4,0.6,9.6,0.4C362.7,210.7,365.8,210.2,368.9,209.4z"/>
	<path class="st6" d="M352.5,266c0.5-1.1,0.8-2.3,0.4-3.6c-0.2-0.6-0.6-1.2-1-1.6c-0.2-0.2-0.5-0.4-0.8-0.5
		c-0.3-0.2-0.5-0.3-0.8-0.3c-1.1-0.3-2.2-0.2-3.2,0.1c1,0.4,2,0.6,2.8,1.1c0.8,0.4,1.3,1,1.5,1.8c0.3,1.5-0.7,3.3-2,4.6
		c-0.7,0.7-1.4,1.2-2.3,1.6c-0.9,0.5-1.8,0.9-2.7,1.3c-1.8,0.8-3.7,1.5-5.6,2.1c-3.8,1.2-7.8,1.8-11.8,1.7c-1.9,0-3.9-0.6-4.1-2.3
		c-0.1-0.8,0-1.8,0.3-2.8c0.3-1,0.6-1.9,1.1-2.9l-0.1,0c-0.7,0.7-1.4,1.6-1.9,2.5c-0.5,0.9-0.9,2-0.8,3.2c0,0.3,0.1,0.6,0.2,0.9
		c0.1,0.3,0.3,0.6,0.4,0.9c0.2,0.3,0.4,0.5,0.7,0.7c0.2,0.2,0.5,0.3,0.8,0.5c0.3,0.2,0.5,0.2,0.8,0.3c0.3,0.1,0.6,0.2,0.8,0.2
		c0.5,0.1,1.1,0.2,1.6,0.2c4.2,0.3,8.4-0.3,12.5-1.5c2-0.6,4-1.3,5.9-2.2c1-0.4,1.9-0.9,2.8-1.4c0.9-0.6,1.9-1.2,2.6-2
		S352,267,352.5,266z"/>
	<path class="st2" d="M289.1,251.3c2.4-1.8,4.3-4,5.7-6.5c-1.8,2.2-4,4-6.5,5c-1.2,0.5-2.5,0.7-3.7,0.7c-0.6,0-1.2-0.1-1.9-0.1
		l-2-0.2c-2.7-0.3-5.3-0.8-8.3-1.2c-0.4,0-0.9,0-1.3,0.1c-0.4,0.1-0.7,0.3-1.1,0.4c-0.7,0.3-1.3,0.6-1.9,1c-1.3,0.7-2.5,1.4-3.7,2.2
		l0,0c1.3-0.5,2.7-1,4-1.4c0.7-0.2,1.3-0.4,2-0.6c0.3-0.1,0.7-0.2,1-0.2c0.3,0,0.5,0,0.8,0.1c1.2,0.3,2.6,1,3.9,1.4
		c1.4,0.5,2.8,0.8,4.3,1c0.7,0.1,1.5,0.2,2.2,0.2c0.7,0,1.5,0,2.3-0.2C286.5,252.9,287.9,252.1,289.1,251.3z"/>
	<path class="st6" d="M419.2,701.2l-0.7,1.2l-3.2-0.9l-0.4,1.3c-3.2-2.1-6.3-4.3-9.4-6.5c-5.1-3.7-10.1-7.5-14.9-11.8
		c-4.7-4.3-9-9-12.9-14.2l-2.7-4c-0.9-1.3-1.6-2.7-2.5-4.1l-0.7-1.2c0.6-0.3,1.3-0.7,1.9-1.1l1.9-1.1l0.7,1.2
		c0.8,1.3,1.5,2.7,2.3,3.9l2.6,3.8c3.6,4.9,7.6,9.5,12.1,13.7c4.5,4.2,9.4,8,14.4,11.7C411.5,695.9,415.3,698.6,419.2,701.2z"/>
	<path class="st6" d="M419.5,702.2L400.1,763l-1.2-0.3l15.9-62.7C415.8,700.5,418.5,701.6,419.5,702.2z"/>
	<path class="st6" d="M400,189c-3.8-1-7.5-2.1-11.1-3.3c-0.1-0.1-0.1-0.2-0.2-0.3c-0.1-0.2-0.3-0.5-0.5-0.7
		c-0.1-0.1-0.2-0.2-0.3-0.3c-0.1-0.1-0.1-0.1-0.3-0.2h-1.3c0,0.2-0.1,0.4-0.1,0.6c-2.5-0.8-4.9-1.6-7.4-2.3c-1.8-0.5-3.5-1-5.3-1.4
		c-0.9-0.2-1.8-0.4-2.6-0.5c-0.8-0.1-1.5-0.1-2.4,0c-3.4,0.4-7,1.4-10.4,2.4c-7,2.1-13.8,4.7-20.7,7.3l-10.3,3.9
		c-3.5,1.3-6.8,2.7-10.6,3.8c-3.7,1.1-7.3,1.8-11.1,2.4c-3.7,0.6-7.4,1.1-11.3,1.2c-1.9,0.1-3.9,0.1-6-0.2l-0.8-0.1l-0.4-0.1
		c-0.2-0.1-0.4-0.1-0.6-0.2c-0.7-0.2-1.2-0.4-1.6-0.7c-0.9-0.5-1.8-0.9-2.6-1.4c-3.3-2-6.3-4-9.4-6.1l-18-12.7c-3-2.1-6-4.1-9.1-6.1
		c-1.5-1-3.1-1.9-4.7-2.7c-1.4-0.7-3.7-1.6-5.1-1.9c0-0.3,0.7-0.7,0.9-0.7l-0.7,0.6l-0.6,0c0-0.2,0-0.4,0-0.6V168l0.7,0
		c2,0,3.9,0.6,5.6,1.2c1.8,0.6,3.5,1.4,5.2,2.2c3.4,1.6,6.6,3.4,9.8,5.3c3.2,1.9,6.3,3.8,9.5,5.8l9.3,6c3.1,2,6.1,4,9.2,5.8
		c0.8,0.4,1.5,0.8,2.2,1.2c0.3,0.2,0.7,0.3,0.9,0.4l0.1,0l0.3,0l0.5,0.1c1.5,0.2,3.3,0.2,5,0.2c7-0.3,14.3-1.5,21.1-3.2
		c3.3-0.9,6.9-2.2,10.3-3.3L336,186c7-2.3,14.1-4.5,21.3-6.3c3.6-0.9,7.2-1.8,11.1-2c1-0.1,2.1,0,3.1,0.2c0.9,0.2,1.9,0.4,2.8,0.7
		c1.8,0.5,3.6,1.1,5.3,1.7C386.6,182.8,393.4,185.4,400,189z"/>
	<path class="st6" d="M387.3,493.2l1.1,0l-1.6,1.2c-2.4,1.9-4.5,4.1-6.4,6.5c-1.9,2.4-3.7,4.9-5.2,7.5c-3.1,5.2-5.6,10.9-7.7,16.7
		c-2.1,5.7-3.8,11.6-5.1,17.7c-0.7,3-1.2,6-1.7,9.1l-0.6,4.6l-0.3,2.3l-0.2,2.3c-1.1,12.3-0.9,24.7,0.2,37
		c1.1,12.4,2.9,24.7,6.2,36.6c1.5,6,3.7,11.7,6.1,17.4l2,4.1l1,2.1l0.4,0.8l-1.9,1.1l-0.7-1.1c-0.6,0.3-1.3,0.6-1.9,0.8l-0.8-1.7
		l-2.1-4.3c-2.5-5.9-4.7-11.8-6.4-18c-3.4-12.2-5.2-24.8-6.4-37.3c-1.2-12.6-1.4-25.2-0.4-37.9c1-12.6,3.6-25.3,8.4-37.1
		c1.2-3,2.6-5.9,4-8.7c1.5-2.8,3.1-5.6,5-8.2c1.8-2.6,3.9-5.1,6.2-7.4c1.8-1.8,4.7-4.6,6.9-6c0.7,0.1-0.2,0.1,0.5,0.1l0.1-0.1
		l0.2,0.1l0-0.1c0.1,0,0.2,0,0.3,0L387.3,493.2z"/>
	<path class="st6" d="M340.2,462.1c0-0.2,0.1-0.5,0.1-0.7c2.1,4.1,4.7,8.2,7.5,12c3,3.9,6.5,7.5,10.4,10.4c1,0.7,2,1.3,3.1,1.9
		c1.1,0.5,2.1,1.1,3.3,1.6c2.3,1,4.7,1.8,7.1,2.7c4.7,1.5,9.5,2.8,14.3,3.2l0,0.1c-0.6,0.3-1.2,0.7-1.8,1.1
		c-4.5-0.3-8.8-1.3-13.1-2.5c-2.5-0.7-4.9-1.5-7.3-2.4c-1.2-0.4-2.4-1-3.6-1.5c-1.2-0.6-2.3-1.3-3.5-1.9c-4.4-2.9-8.2-6.6-11.5-10.5
		c-3.3-4-6.3-8.2-8.9-12.9l-0.3-0.6l0.1-0.7c0.9-5.2,1.5-10.6,1.9-15.9c0.2-2.7,0.3-5.4,0.3-8c0-0.7,0-1.3,0-2l0-1
		c0-0.3-0.1-0.6-0.1-0.9c-0.1-1.2-0.4-2.4-0.7-3.7c-0.6-2.3-1.2-4.5-1.9-6.8c0.4-1.4,0.8-2.8,1.1-4.3l1.3-0.5
		c1.2,3.5,2.4,6.9,3.3,10.6c0.3,1.4,0.7,2.7,0.8,4.3c0,0.4,0.1,0.8,0.1,1.2l0,1c0,0.7,0,1.4,0,2.1c0,2.8-0.1,5.5-0.2,8.3
		c-0.3,5.3-0.9,10.5-1.8,15.7c-0.1-0.2-0.2-0.4-0.3-0.6L340.2,462.1z"/>
	<path class="st6" d="M374.2,660.3l-2.4,0.7c-2.3,1.2-4.7,1.9-7.1,2.6c-3.1,0.9-6.2,1.6-9.4,2.1c-3.2,0.6-6.4,1-9.6,1.2
		c-3.2,0.3-6.5,0.3-9.7,0.2c-3.3-0.2-6.5-0.6-9.8-1.4c-3.3-0.8-6.4-2.3-9.3-4c-5.7-3.4-10.5-7.9-15.3-11.8c-2.4-1.9-4.8-3.8-7.3-5
		c-0.6-0.3-1.3-0.5-1.9-0.7c-0.6-0.3-1.3-0.3-1.9-0.4l-0.5-0.1l-0.6,0l-1.1-0.1c-0.8-0.1-1.5-0.1-2.3-0.1c-3.1-0.1-6.3-0.2-9.4-0.2
		l-9.5-0.2c-12.7-0.2-25.3-0.5-38-1.2l-0.8,0l0.2-0.8l5.2-21.7c0.6-0.7,2.3-0.6,2.9-1.2l-6.6,22.4c0.2,0.1,0.8,0.6,0.5,0.6l-0.7,0.2
		l0.2-0.9c12.4-1.1,24.8-1.7,37.2-2l9.5-0.1c3.2,0,6.4,0,9.6,0.1c0.8,0,1.6,0,2.4,0.1l1.2,0.1l0.6,0l0.7,0.1
		c0.9,0.2,1.9,0.3,2.7,0.6c0.9,0.3,1.8,0.6,2.5,1c3.2,1.6,5.8,3.6,8.3,5.7c5,4.1,9.4,8.5,14.5,11.7c2.6,1.6,5.2,2.9,8,3.7
		c2.9,0.8,5.9,1.3,9,1.6c6.1,0.6,12.4,0.4,18.6-0.3c3.1-0.3,6.2-0.8,9.3-1.4c2.3-0.5,7-2.4,9.2-3.2L374.2,660.3z"/>
	<path class="st6" d="M338,418.3l-1.3,0.5l-1.2-0.5c-0.3,0.5-0.7,1-1,1.5c-0.6-1.8-1.2-3.6-1.9-5.3c-1.8-5.1-3.7-10.2-5.7-15.2
		c-3.9-10.1-8-20.2-12.1-30.2l-6.3-15c-2.2-5-4.3-10-5.7-15.3c3.1,4.6,5.4,9.5,7.6,14.5l6.7,14.9c4.4,9.9,8.8,19.9,13,30
		c2.1,5,4.1,10.1,6,15.2C336.8,414.9,337.4,416.6,338,418.3z"/>
	<path class="st6" d="M167.5,711.4L167.5,711.4c6.5-12.7,13.8-24.9,21.5-36.9c3.9-5.9,7.9-11.8,12.1-17.6c2.1-2.9,4.3-5.7,6.5-8.5
		c1.1-1.4,2.3-2.8,3.4-4.1c1.1-1.4,2.2-2.8,3.4-4.1c4.7-5.4,9.5-10.5,14.3-15.8c4.8-5.3,9.5-10.5,14-15.9c4.6-5.4,9-10.9,13-16.7
		c4.1-5.8,7.8-11.7,11.2-17.9c6.8-12.3,12.3-25.4,18-38.4c5.6-13,11.2-26.1,16.7-39.1l16.5-39.2l8.2-19.6c2.6-6,5.3-15.1,8.8-20.7
		c0.4,1.1,2.6,1.4,2.2,3.9c-1.6,5.4-5.7,12.9-7.8,18.2l-8.2,19.6l-16.6,39.2c-5.6,13.1-11.2,26.1-16.8,39.1
		c-5.7,13-11.3,26.1-18.3,38.6c-3.5,6.2-7.3,12.3-11.5,18.1c-4.2,5.8-8.7,11.4-13.3,16.8c-3.2,3.7-6.4,7.4-9.7,11l0.4-1.5l-1.2-0.3
		l-1,3.9c-0.9,1-1.8,1.9-2.6,2.9c-4.8,5.2-9.7,10.4-14.3,15.7c-1.2,1.3-2.3,2.7-3.5,4c-1.1,1.4-2.3,2.7-3.4,4.1
		c-2.2,2.8-4.4,5.5-6.5,8.4c-4.3,5.6-8.3,11.4-12.3,17.3c-7.7,11.6-15,23.6-21.6,35.9l-0.4-0.3l0,0l0.2-0.3c0.1-0.2,0.3,0.5,0.3,0.6
		l9.1,6.3l0.5,0.3l-0.3,0.5l-5.3,9.9l-2.7,4.9l-1.3,2.5c-0.5,0.8-0.9,1.6-1.5,2.4c-2.1,3.2-4.4,6.1-7,8.9c-2.5,2.8-5.2,5.4-8.1,7.8
		l-0.3,0.3l-0.4-0.2l-8.5-3.8c0.1-0.2,0.1-0.5,0.2-0.7l-0.4,0.2l-0.2-0.4c-0.2-0.2-0.3-0.4-0.5-0.6l0.1-0.3l0.7,0.3l8.8,4
		c0.2,0,0.3-0.2,0.4-0.2l0,0.4l-0.4-0.2c2.7-2.3,5.3-4.8,7.7-7.4c2.5-2.7,4.8-5.6,6.9-8.7c0.5-0.8,1-1.6,1.4-2.4l1.3-2.4l2.6-4.9
		l5-9.3l0.1-0.6l0.1,0.1l-0.3,0.5l-9-6.3l-0.1,0l-0.4-0.3L167.5,711.4z"/>
	<path class="st6" d="M309.2,283.5l-0.1,0.4c-3.1,4.5-6.3,9-9.7,13.2c-1.8,2.1-3.5,4.3-5.6,6.1c-2.2,1.8-4.3,3.3-6.4,5.1
		c-2.1,1.8-4,3.6-5.8,5.6c-1.8,2-3.3,4.2-4.1,6.7c-0.8,2.5-1.5,5.2-2.2,7.8l-2,7.9c-2.7,10.6-5.3,21.2-8.4,31.7
		c-1.5,5.2-3.2,10.5-5.2,15.6c-1.9,5.1-3.7,10.3-5.4,15.4c-1.7,5.2-3.4,10.4-5,15.6c-1.7,5.2-2.9,10.5-4.4,15.7l-7.2,27.4l-0.3-0.1
		c0-1.9-0.1-3.7-0.1-5.6l5.9-22.2c1.4-5.3,2.7-10.6,4.4-15.8c1.6-5.2,3.3-10.4,5-15.6c1.7-5.2,3.6-10.3,5.5-15.5
		c1.9-5.1,3.6-10.2,5.2-15.5c3.1-10.4,5.8-21,8.6-31.6l2.1-7.9c0.7-2.6,1.4-5.3,2.3-7.9c1-2.7,2.7-5,4.5-7.1c1.8-2.1,3.9-4,6-5.7
		c2.1-1.8,4.4-3.4,6.4-5.1c2-1.7,3.7-3.8,5.5-5.9c3.3-4.1,6.6-9.1,9.6-13.5C308.4,282.9,308.9,283.4,309.2,283.5z"/>
	<path class="st6" d="M237.6,457.6l-1.1,4.3l-4.2,15.8c-0.7,2.7-1.3,5.2-2.1,8c-0.8,2.6-1.9,5.2-3,7.7c-2.3,5-4.9,9.9-7.8,14.5
		c-2.9,4.7-6.2,9.1-9.4,13.5c-12.7,17.7-23.3,36.8-33.5,56c-2.5,4.8-4.7,9.8-6.9,14.8c-2.2,5-4.2,10-6.2,15.1
		c-4,10.1-7.8,20.4-11.5,30.6l-11.1,30.8c-1.8,5.1-3.4,10.3-5.3,15.5c-0.9,2.6-1.8,5.2-2.6,7.8c-0.4,1.3-0.8,2.6-1.2,3.9h0
		c0.4-1.3,0.7-2.6,1-4c0.6-2.7,1.1-5.4,1.7-8c1.1-5.4,2.7-10.6,4.5-15.8l11.1-30.8c3.7-10.3,7.5-20.5,11.5-30.7
		c2-5.1,4.1-10.1,6.2-15.2c2.2-5,4.4-10,7-14.9c10.2-19.3,20.8-38.5,33.6-56.3c3.2-4.5,6.5-8.8,9.3-13.4c2.9-4.6,5.5-9.4,7.7-14.3
		c1.1-2.5,2.1-5,2.9-7.5c0.8-2.5,1.4-5.2,2.1-7.9l4.2-15.8l1.3-5.1c0,0.4,0,0.8,0,1.2l1.3,0L237.6,457.6z"/>
	<path class="st6" d="M146.9,798.7c0,0.7-0.3,1.7-1,2.2c-0.3,0.3-0.7,0.4-1.1,0.6l-0.9,0.3c-5,1.3-10,2.3-15.2,2.6
		c-1.3,0.1-2.6,0-4-0.2c-1.4-0.3-2.6-1.1-3.6-1.8c-2.1-1.5-4.1-3-6.3-4.2c-4.4-2.5-9.4-3.6-14.4-3.5c-2.5,0-5.1,0.3-7.6,0.4
		l-7.7,0.4c-5.1,0.2-10.2,0.4-15.4,0.6c-5.1,0.1-10.3,0.3-15.4,0.1c-5,0-10.1,0.7-15.2,1.2l-7.6,0.9c-2.5,0.3-5.2,0.6-7.8,0.4
		c-5.2-0.2-10.4-1.2-15.1-3.5c-2.4-1.1-4.6-2.6-6.5-4.4c-0.5-0.5-0.9-1-1.3-1.5c-0.2-0.3-0.4-0.6-0.5-1c-0.1-0.4-0.2-0.8-0.1-1.3
		c0.1-0.5,0.5-0.9,0.8-1.1c0.4-0.2,0.7-0.3,1.1-0.5c0.7-0.2,1.4-0.3,2-0.3c2.7-0.1,5.2,0.3,7.8,0.9c0.6,0.1,1.3,0.4,1.8,0.5
		c0.6,0.1,1.2,0.1,1.8,0.1c1.2,0,2.5-0.2,3.8-0.4c4.1-0.6,11.7-2.4,15.7-3.3l2.7,0.9l-3.5,0.8c-4.9,1.2-9.8,2.2-14.8,3
		c-1.3,0.2-2.6,0.3-3.9,0.4c-0.7,0-1.3,0-2-0.1c-0.8-0.2-1.3-0.4-1.9-0.5c-2.4-0.6-5-0.9-7.4-0.9c-0.6,0-1.2,0.1-1.8,0.3
		c-0.5,0.1-1,0.4-1,0.7c-0.1,0.3,0.1,0.8,0.4,1.2c0.3,0.5,0.7,0.9,1.2,1.3c1.8,1.7,3.9,3.1,6.2,4.2c4.5,2.1,9.6,3.1,14.6,3.3
		c2.5,0.1,5-0.2,7.6-0.4l7.6-0.9c5.1-0.6,10.2-1.2,15.4-1.2c5.1,0.2,10.2,0,15.3-0.1c5.1-0.2,10.2-0.4,15.3-0.6l7.7-0.4
		c2.6-0.1,5.1-0.4,7.7-0.4c5.2-0.1,10.5,1.1,15.1,3.7c2.3,1.2,4.4,2.8,6.4,4.3c1,0.7,2.1,1.4,3.2,1.6c1.1,0.2,2.4,0.3,3.7,0.2
		c5-0.3,10.1-1.3,15-2.5l0.9-0.3c0.2-0.1,0.5-0.2,0.6-0.3c0.4-0.2,0.5-0.7,0.5-1.2c0-1-0.5-2.2-1.2-3.2c-1.4-2-3.4-3.6-5.7-4.5
		c-0.6-0.2-1.1-0.4-1.8-0.6c-0.7-0.2-1.3-0.5-1.9-1c-1.1-0.9-1.9-2.1-2.5-3.2c-0.6-1.2-1-2.4-1.4-3.7c-0.2-0.6-0.3-1.3-0.5-1.9
		l-0.2-1.1c0-0.3,0-0.7,0-1c0.2-2.8,1.3-5.2,2.5-7.5c1.2-2.3,2.6-4.5,3.9-6.6c1.3-2.1,2.1-4.5,2.9-6.9c0.8-2.4,1.5-4.9,2.2-7.3
		l0.1-0.5c0.2,0.2,0.3,0.4,0.5,0.6l0.2,0.4l0.7-0.5l-0.5,1c-0.6,2.2-1.3,4.5-2,6.7c-0.8,2.4-1.7,4.9-3,7.2c-1.3,2.2-2.7,4.3-3.9,6.6
		c-1.2,2.2-2.2,4.6-2.3,7c0,0.3,0,0.6,0,0.9l0.1,0.9c0.1,0.6,0.3,1.2,0.5,1.8c0.4,1.2,0.8,2.4,1.3,3.5c0.5,1.1,1.2,2.1,2.1,2.8
		c0.4,0.4,1,0.6,1.5,0.8c0.5,0.2,1.3,0.4,1.9,0.6c2.5,1,4.7,2.7,6.2,4.9C146.2,795.9,146.9,797.1,146.9,798.7z"/>
	<path class="st4" d="M145.6,798.6c-0.1,0.5-0.1,1-0.5,1.2c-0.2,0.2-0.4,0.2-0.6,0.3l-0.9,0.3c-4.9,1.3-9.9,2.3-15,2.5
		c-1.2,0.1-2.5,0-3.7-0.2c-1.1-0.2-2.1-0.9-3.2-1.6c-2.1-1.4-4.2-3-6.4-4.3c-4.6-2.6-9.9-3.8-15.1-3.7c-2.6,0-5.1,0.3-7.7,0.4
		l-7.7,0.4c-5.1,0.2-10.2,0.4-15.3,0.6c-5.1,0.1-10.2,0.3-15.3,0.1c-5.2,0-10.3,0.7-15.4,1.2l-7.6,0.9c-2.6,0.3-5,0.5-7.6,0.4
		c-5-0.2-10.1-1.2-14.6-3.3c-2.3-1.1-4.4-2.4-6.2-4.2c-0.4-0.4-0.8-0.9-1.2-1.3c-0.3-0.5-0.5-1-0.4-1.2c0-0.3,0.5-0.5,1-0.7
		c0.5-0.2,1.1-0.2,1.8-0.3c2.4-0.1,5,0.3,7.4,0.9c0.6,0.1,1.1,0.4,1.9,0.5c0.7,0.1,1.4,0.1,2,0.1c1.3,0,2.6-0.2,3.9-0.4
		c5-0.7,9.9-1.8,14.8-3c0.1,0,0.2,0,0.3-0.1l2.7-0.7l-2.8-0.6l-0.3-0.1l-17-3.6c1.6-3.2,3.4-6.4,5.4-9.2l0.4-0.6
		c0.1-0.2,0.2-0.2,0.4-0.4c4.6,0.6,27.5,3.4,39.3,0.6c0,0,0,0,0,0c0.4-0.1,0.9-0.2,1.3-0.3l0.2,0.1c0.1,0.1,0.3,0.1,0.5,0.1
		c0.2,0,0.5,0,0.6-0.1c1.4-0.4,2.4-1,3.6-1.6c4.4-2.5,8.4-5.3,12.6-8c2.1-1.3,4.2-2.7,6.3-3.9c2.1-1.2,4.5-1.6,6.9-1.9
		c4.9-0.5,9.9-0.5,14.8-0.2l0.4,0l0.2-0.4v0c5.2-9.6,10.1-19.4,14.4-29.4c0.6-1.2,1.2-2.5,1.7-3.9c0.1-0.2,0.1-0.4,0.2-0.6
		c2.5,5.6,9.9,21.8,15.9,29.8l-0.1,0.5c-0.7,2.4-1.4,4.9-2.2,7.3c-0.8,2.4-1.6,4.8-2.9,6.9c-1.3,2.2-2.7,4.3-3.9,6.6
		c-1.2,2.3-2.3,4.7-2.5,7.5c0,0.4,0,0.7,0,1l0.2,1.1c0.2,0.6,0.3,1.3,0.5,1.9c0.4,1.3,0.8,2.5,1.4,3.7c0.6,1.2,1.4,2.3,2.5,3.2
		c0.6,0.4,1.2,0.8,1.9,1c0.7,0.2,1.2,0.3,1.8,0.6c2.2,0.9,4.3,2.5,5.7,4.5C145.1,796.4,145.6,797.6,145.6,798.6z"/>
	<path class="st6" d="M41.8,765c-3,0.4-6,0.8-9,1.3c-1.9,0.3-3.8,0.7-5.6,1.3c-0.9,0.3-1.8,0.6-2.7,0.9c-0.4,0.2-0.8,0.4-1.1,0.6
		c0,0,0,0-0.1,0.1c-0.1,0.1-0.2,0.2-0.4,0.4l-0.4,0.6c-2.1,2.9-3.8,6-5.4,9.2l-0.8-0.2l0.6-0.5c0.1-0.2,0.1,0.6,0.2,0.7l17,3.6
		l0,0.1c-0.9,0.2-1.9,0.4-2.8,0.7l-15.3-3.2l-0.8-0.2l0.4-0.7c1.7-3.5,3.6-7,5.9-10.2l0.4-0.6c0.2-0.2,0.4-0.5,0.6-0.6
		c0.5-0.3,0.9-0.6,1.4-0.8c0.9-0.4,1.9-0.7,2.8-1c1.9-0.5,3.8-0.9,5.7-1.3c3.8-0.7,7.7-1.2,11.6-1.6c3.9-0.4,7.8-0.8,11.6-1.1l0.2,0
		l0.2,0.1c2,1.5,4,3,6,4.4c0.5,0.3,1,0.7,1.5,1c0.3,0.2,0.5,0.3,0.8,0.5l0.2,0.1c0.1,0,0.2,0,0.3-0.1c1-0.3,2.2-0.9,3.2-1.5
		c4.3-2.4,8.4-5.2,12.6-7.9c2.1-1.3,4.2-2.7,6.4-3.9c1.1-0.6,2.4-1.1,3.6-1.4c1.2-0.3,2.5-0.5,3.7-0.6c4.9-0.5,9.7-0.5,14.6-0.2
		l0.4-0.1l0,0.1c-0.1,0-0.3,0-0.4,0l6.6-14.5c1.1-2.5,2.3-5,3.3-7.4c1.1-2.5,2.1-5,3.2-7.5c0.5-1.2,1.1-2.5,1.6-3.7
		c0.4-1.2,0.5-2.2,0.2-3.2c-0.3-1.1-1-2.2-1.8-3.3c-0.7-1.1-1.5-2.2-2.3-3.3l-0.6-0.8c-0.2-0.3-0.4-0.7-0.6-1.1c-0.4-0.9-0.5-2,0-3
		c0.5-0.8,1.1-1.5,1.8-1.9c0.6-0.5,1.3-0.8,2-1c1.4-0.5,2.8-0.8,4.1-1c0.7-0.1,1.4-0.2,2.1-0.2c0.5,0,1-0.6,1.4-1.1
		c0.7-1.1,1.2-2.4,1.6-3.7h0c-0.4,1.3-0.8,2.6-1.4,3.9c-0.2,0.4-0.5,0.9-0.9,1.3c-0.2,0.1-0.4,0.3-0.6,0.3c-0.7,0.2-1.3,0.4-1.9,0.7
		c-1.2,0.5-2.5,1.1-3.6,1.7c-1.1,0.6-2.2,1.4-2.5,2.1c-0.2,0.3-0.1,0.6,0,1c0.2,0.2,0.2,0.4,0.4,0.6l0.6,0.8
		c0.8,1.1,1.6,2.2,2.4,3.4c0.7,1.2,1.6,2.3,2.1,3.9c0.2,0.8,0.4,1.6,0.3,2.5c0,0.6-0.2,1.2-0.3,1.7c-0.1,0.2-0.1,0.4-0.2,0.6
		c-0.5,1.4-1.1,2.6-1.7,3.9c-4.4,10-9.2,19.8-14.4,29.4v0l-0.2,0.4l-0.4,0c-4.9-0.2-9.9-0.3-14.8,0.2c-2.4,0.3-4.8,0.6-6.9,1.9
		c-2.1,1.2-4.2,2.5-6.3,3.9c-4.2,2.7-8.3,5.5-12.6,8c-1.1,0.6-2.2,1.2-3.6,1.6c-0.2,0.1-0.4,0.1-0.6,0.1c-0.2,0-0.3-0.1-0.5-0.1
		l-0.2-0.1l0,0c-0.3-0.2-0.6-0.3-0.8-0.5c-0.5-0.3-1.1-0.7-1.6-1.1c-2-1.4-3.9-2.8-5.8-4.3c0.1,0,0.2,0,0.2,0l-0.4-0.1
		c0.1,0.1,0.1,0.1,0.2,0.1c-3.8,0.3-7.6,0.6-11.4,1C43.5,764.8,42.6,764.9,41.8,765z"/>
	<path class="st6" d="M586.1,787.2c0.4,4.8,0.7,9.6,0.7,14.4c-0.5,0.1-1,0.1-1.6,0.1c-0.8-4.7-1.3-9.5-1.7-14.3
		c-0.2-2.7-0.4-5.4-0.5-8c-0.1-2.7,0-5.4,0.3-8.1c1,2.6,1.4,5.3,1.9,7.9C585.6,781.8,585.8,784.5,586.1,787.2z"/>
	<path class="st6" d="M482.7,125.8c0,2,0.1,4.1,0.2,6.1l0.2,3l0.3,3.1c0.9,8.3,1.8,16.5,2.7,24.8c1,8.2,1.9,16.5,3.1,24.7l0.9,6.1
		c0.2,1,0.3,2.1,0.5,3c0.2,1,0.4,2,0.6,2.8c0.6,1.6,1.9,3.1,3.4,4.3c1.5,1.2,3.3,2.2,5.1,3.1c0.9,0.4,1.8,0.8,2.8,1.1
		s1.9,0.6,2.9,0.9c2,0.6,3.9,1.3,5.9,1.7c2,0.5,3.9,0.7,5.8,0.5c1-0.1,1.9-0.3,2.8-0.7c0.4-0.2,0.9-0.4,1.3-0.7l0.6-0.4l0.7-0.5
		c3.6-2.3,7.5-3.9,11.3-5.6c3.9-1.6,7.7-3.1,11.7-4.5l0.3-0.1l0.3,0.2l0,0l2.3,1.9c-0.1,0-0.1,0-0.2,0v0.1h-0.4v0h0
		c-0.2,0.2-0.4,0.3-0.6,0.5l-1.6-1.3c-0.2,0-0.6-0.3-0.5-0.3l0.3,0.1l0,0l0.3,0.2c-3.8,1.4-7.5,3-11.2,4.6
		c-3.8,1.7-7.6,3.4-10.9,5.7l-0.6,0.4l-0.7,0.5c-0.5,0.3-1,0.6-1.5,0.8c-1,0.5-2.1,0.8-3.2,0.9c-2.2,0.3-4.4,0-6.5-0.4
		c-2.1-0.4-4.1-1.1-6.1-1.6c-1-0.3-2-0.5-3-0.9c-1-0.4-2-0.7-3-1.2c-2-0.9-3.9-1.9-5.6-3.2c-0.9-0.7-1.7-1.4-2.5-2.3
		c-0.7-0.9-1.4-1.9-1.9-3c-0.4-1.1-0.6-2.2-0.8-3.2c-0.2-1.1-0.4-2.1-0.6-3.1l-1-6.2c-1.3-8.2-2.4-16.5-3.6-24.7
		c-1.1-8.2-2.2-16.5-3.3-24.7l-0.4-3.1l-0.3-3.2c-0.1-2.1-0.3-4.2-0.3-6.3"/>
	<path class="st6" d="M451.3,472l-2.3-16.7c-0.7-4.9-1.4-9.7-2.1-14.6c-0.4-2.4-0.7-4.8-1.2-7.3c-0.2-1.2-0.5-2.4-0.7-3.6
		c-0.2-1.2-0.5-2.5-0.6-3.7c-1-9.8-1.5-19.6-2.1-29.4c-1-19.6-1.9-39.3-2.7-58.9l-1.2-29.5c-0.2-4.9-0.3-9.8-0.7-14.7
		c-0.3-4.9-0.8-9.8-1.3-14.6c-1.1-9.8-2.4-19.5-3.8-29.2c-1.4-9.7-2.9-19.4-4.7-29.1c-0.5-2.3-0.9-4.9-1.6-7
		c-0.1-0.1-0.1-0.3-0.1-0.4l-0.2-0.3c-0.1-0.2-0.2-0.4-0.4-0.6c-0.2-0.2-0.3-0.4-0.5-0.6l-0.6-0.5c-0.4-0.3-0.8-0.5-1.2-0.8
		c-0.1-0.5-0.1-0.9-0.2-1.4c-0.1,0.4-0.1,0.7-0.2,1.1c-0.4-0.3-0.9-0.5-1.4-0.7c-4.3-2-9.1-3.4-13.7-5.1c-2.3-0.9-4.6-1.7-6.9-3
		c-2.2-1.3-4.2-2.9-6.1-4.6c-1.8-1.7-3.5-3.6-5-5.6c-0.8-1-1.5-2-2.2-3.1c-0.3-0.5-0.7-1.1-1-1.7c-0.1-0.3-0.2-0.6-0.3-1
		c0-0.2-0.1-0.4-0.1-0.5c0,0-0.2-1.4-0.2-1.4c0.8,0.3,1.8,0.5,2.7,0.8c0.3,0.4,0.6,2.2,0.8,2.6c0.6,1,1.3,2,2,2.9
		c1.4,1.9,3,3.7,4.8,5.4c1.7,1.6,3.6,3.1,5.6,4.3c2,1.1,4.3,2,6.6,2.9c4.6,1.7,9.3,3,13.9,5.2c1.1,0.6,2.3,1.2,3.3,2
		c1.1,0.7,2.1,2,2.5,3.3c0.8,2.6,1.2,4.9,1.7,7.4c1.8,9.7,3.3,19.4,4.6,29.2c1.4,9.7,2.6,19.5,3.7,29.3c0.5,4.9,1,9.8,1.3,14.7
		c0.3,4.9,0.4,9.8,0.6,14.8l1.1,29.5c0.7,19.6,1.5,39.3,2.4,58.9c0.5,9.8,1,19.6,2,29.4c0.1,1.2,0.4,2.4,0.5,3.6
		c0.2,1.2,0.5,2.4,0.7,3.7c0.4,2.4,0.8,4.9,1.2,7.3c0.7,4.9,1.4,9.7,2.1,14.6l3.9,29.2c0.7,4.9,1.3,9.7,2.1,14.6
		c0.4,2.4,0.7,4.9,1.3,7.2c0.6,2.4,1.3,4.8,1.9,7.1c4.7,19.1,9.1,38.2,13.7,57.4c1.2,4.8,2.3,9.6,3.6,14.3c1.3,4.7,4.1,8.8,7.1,12.6
		c3,3.8,6.4,7.4,9.9,10.9c1.7,1.7,3.6,3.3,5.3,5.1c1.7,1.8,3.3,3.7,4.8,5.7c2.9,4,5.5,8.3,7.3,12.9c0.2,0.6,0.4,1.2,0.6,1.8
		c0.1,0.7,0.1,1.2,0.3,1.8c0.2,0.5,0.6,0.9,1,0.9c0.4,0,0.8-0.5,1.2-0.9c1.2-2,1.7-4.5,2.2-6.8c1.6-9.7,1.8-19.5,2.4-29.3
		c0.3-4.9,0.7-9.8,1.3-14.7c0.4-4.9,0.4-9.8,0.4-14.7c-0.2-9.8-0.8-19.6-1.2-29.4c-0.8-19.6-2-39.2-5.8-58.5
		c-1.5-9.7-2.7-19.5-3.9-29.3c-1.1-9.8-2.2-19.5-3.1-29.3c-1.9-19.6-3.7-39.2-4.8-58.8c-0.3-4.9-0.4-9.9-0.3-14.8l0.2-14.7
		c0.1-9.8,0.2-19.7,0.8-29.5c0.3-4.9,0.6-9.8,1.4-14.8c0.9-4.9,1.7-9.7,2.4-14.5c0.7-4.9,1.3-9.7,1.9-14.6l0.9-7.3
		c0.1-0.6,0.1-1.2,0.3-1.9l0.2-1l0.3-0.9c0.2-0.6,0.5-1.2,0.7-1.8c0.2-0.6,0.5-1.2,0.8-1.7c2.2-4.5,4.7-8.7,7.2-13
		c2.6-4.2,5.3-8.3,8.2-12.3c2.8-4.1,6.3-7.7,9.9-11c3.4-3.2,7-6.3,10.6-9.2l0.5-0.6l0.1,0.2v0h0.4v1.1c0.1,0,0.1,0,0.2,0
		c-3.8,3-7.4,6.2-10.9,9.5c-3.6,3.4-6.9,6.9-9.7,10.9c-2.9,4-5.5,8.1-8,12.3c-2.5,4.2-5,8.5-7,12.9c-0.3,0.5-0.5,1.1-0.7,1.6
		c-0.2,0.6-0.5,1.1-0.6,1.7l-0.3,0.8l-0.2,0.8c-0.1,0.5-0.2,1.2-0.2,1.8l-0.8,7.3c-0.6,4.9-1.2,9.8-1.9,14.7
		c-0.7,4.9-1.5,9.8-2.3,14.6c-0.8,4.8-1.1,9.7-1.4,14.6c-0.5,9.8-0.6,19.6-0.7,29.4l-0.1,14.8c-0.1,4.9,0.1,9.8,0.4,14.7
		c0.5,9.8,1.3,19.6,2.1,29.4c0.8,9.8,1.7,19.6,2.7,29.3c1,9.8,2,19.5,3.1,29.3c0.7,6.1,1.4,12.2,2.3,18.3c0.5,3.6,1,7.2,1.6,10.8
		c0.4,2.4,0.8,4.8,1.2,7.2c0.4,2.4,0.9,4.9,1.2,7.3l0.5,3.7l0.4,3.7c0.3,2.4,0.5,4.9,0.7,7.4c0.9,9.8,1.4,19.7,1.8,29.5
		s0.1,19.7-0.2,29.5c-0.2,4.9-0.3,9.8-0.6,14.8c-0.6,4.9-1,9.8-1.2,14.7c-0.6,9.8-0.7,19.7-2.3,29.4c-0.5,2.4-0.9,4.9-2.3,7.1
		c-0.4,0.5-0.8,1.1-1.7,1.2c-0.4,0.1-0.8-0.2-1.1-0.4c-0.3-0.3-0.5-0.6-0.6-0.9c-0.3-0.6-0.3-1.4-0.4-1.9c-0.1-0.6-0.3-1.1-0.6-1.7
		c-1.9-4.5-4.4-8.7-7.3-12.7c-1.4-2-3-3.9-4.7-5.6c-1.7-1.7-3.6-3.3-5.3-5.1c-3.5-3.4-6.9-7-10-10.9c-1.5-2-3-4-4.2-6.1
		c-1.3-2.1-2.4-4.4-3-6.8c-1.3-4.8-2.4-9.5-3.6-14.3c-4.7-19.1-9.2-38.2-13.9-57.3c-0.6-2.4-1.2-4.7-1.9-7.1c-0.6-2.5-1-4.9-1.4-7.3
		c-0.8-4.9-1.5-9.7-2.1-14.6L451.3,472z"/>
	<path class="st6" d="M541.1,704.5c0.1,2.9,0.1,5.7,0,8.6c0,1.4-0.1,2.9-0.2,4.3c-0.1,0.7-0.1,1.5-0.3,2.2c0,0.4-0.1,0.7-0.3,1.2
		l-0.2,0.6L540,722c-1.5,2.6-3.3,4.8-5,7.1c-1.8,2.3-3.5,4.5-5.3,6.8c-1.8,2.2-3.6,4.4-5.5,6.6c-0.9,1.1-1.9,2.2-2.9,3.2
		c-1,1.1-2.1,2-3.2,3c-8.6,7.6-17.6,14.7-26.7,21.7c-4.6,3.5-9.2,6.9-14,10.1c-1.2,0.8-2.4,1.6-3.6,2.3c-1,0.7-1.6,1.8-1.8,3.1
		c-0.4,2.6,0.3,5.4,1.3,7.9c0,0-0.1-0.1-0.1-0.1l0,0l0.2,0.2c0-0.1,0-0.1-0.1-0.1c2,1.5,4.2,3,6.5,4.1c1.2,0.6,2.3,0.9,3.6,1.1
		c1.3,0.3,2.6,0.5,3.8,0.6c2.5,0.2,5.1-0.2,7.6-1c0.6-0.2,1.1-0.5,1.7-0.7c0.5-0.3,1.1-0.7,1.6-1c1.1-0.7,2.1-1.5,3.2-2.3
		c4.2-3.2,8.2-6.6,12.2-10.1c3.9-3.4,7.7-6.8,11.5-10.3l0.1,0.1l1-0.6c0,0.5-0.1,1.1-0.2,1.6c-3.5,3.2-8.1,7-11.6,10.1
		c-4,3.5-8,6.9-12.3,10.1c-1.1,0.8-2.2,1.6-3.3,2.3c-0.6,0.4-1.2,0.7-1.7,1.1c-0.6,0.3-1.3,0.7-1.9,0.9c-2.6,0.8-5.3,1.2-8.1,1.1
		c-1.4-0.1-2.7-0.3-4-0.6c-0.7-0.1-1.3-0.3-2-0.5c-0.7-0.2-1.3-0.5-1.9-0.7c-2.5-1.2-4.7-2.7-6.8-4.3l0,0l-0.1-0.1l-0.1-0.2
		c-0.5-1.4-1-2.8-1.2-4.2c-0.3-1.4-0.4-3-0.2-4.5c0.2-1.5,1-3.1,2.4-4c1.2-0.8,2.4-1.5,3.6-2.3c4.7-3.2,9.3-6.6,13.9-10.1
		c9.1-7,18-14.1,26.6-21.7c1.1-1,2.1-1.9,3.1-2.9c1-1,1.9-2.1,2.8-3.2c1.9-2.2,3.7-4.4,5.5-6.6c1.8-2.2,3.6-4.5,5.3-6.7
		c1.7-2.3,3.5-4.6,4.8-7l0.2-0.4l0.1-0.4c0.1-0.3,0.2-0.6,0.2-0.9c0.1-0.7,0.2-1.4,0.2-2.1c0.1-1.4,0.2-2.8,0.2-4.2
		c0.1-2.9,0-5.7-0.1-8.6c0-1.3-0.1-2.7-0.1-4c0.4-0.3,0.8-0.5,1.2-0.8l0.5,0C541.1,701.3,541.1,702.9,541.1,704.5z"/>
	<path class="st6" d="M540.7,698.2c0,0.5,0.1,1.7,0.1,2.2c-4.4,2.9-10.7,5.4-15.5,7.4c-5.3,2.2-10.7,4-16.1,5.6
		c-5.5,1.6-11,3.1-16.5,4.4c-5.5,1.3-11.1,2.5-16.7,3.5l-0.1,0h-0.1c-6.5,0.2-12.7-0.5-19-1.5c-6.2-1.1-12.4-2.7-18.4-4.9
		c-6-2.2-11.7-4.9-17.3-8.1c-1.1-0.7-2.3-1.4-3.4-2.1l0.7-2.3l0.7-1.2c1.3,0.8,2.6,1.7,3.9,2.5c5.3,3.1,10.8,5.8,16.6,8
		c5.8,2.2,11.7,3.8,17.8,5c3,0.5,6.1,1,9.1,1.3c3,0.3,6.1,0.5,9.1,0.5c0,0,0,0-0.1,0l0.2,0c0,0-0.1,0-0.1,0
		c5.5-0.9,11.1-1.9,16.6-3.1c5.5-1.2,11-2.5,16.4-4c5.4-1.5,10.8-3.2,16.1-5.2C529.7,704.2,536.2,701.1,540.7,698.2z"/>
	<path class="st6" d="M453,44.9c-12.4-7.3-25-14.3-37.7-20.9c-6.4-3.3-12.8-6.5-19.3-9.5c-6.5-2.9-13.1-5.7-19.8-7.7
		c-3.4-1-6.6-1.6-10.2-1.9c-3.5-0.3-7-0.4-10.6-0.4c-7.1,0-14.2,0.5-21.3,1.4c-14.2,1.8-28.2,5-41.6,9.7C279,20.5,266.1,27,255.2,36
		c-5.4,4.6-10.1,9.8-13.9,15.7c-0.5,0.7-1,1.5-1.4,2.2l-1.2,2.3c-0.8,1.5-1.5,3.2-2.3,4.8l-2.2,4.9l-2.1,5c-1.4,3.3-2.6,6.7-3.8,10
		c-0.6,1.7-1.1,3.4-1.6,5.1l-0.8,2.5l-0.7,2.6c-1.9,6.9-3.1,13.9-3.8,21c-1.4,14.2-0.6,28.6,0.5,42.9c1.1,14.3,2.8,28.7,4.2,43
		c2.7,28.8,4.1,57.6,5.5,86.4c2.5,55.8,4.7,117.6,6,173.4l-2,0.4c-1.7-57.3-3.4-116.5-6.3-173.7c-1.5-28.8-3.2-57.6-6-86.3
		c-1.5-14.3-3.2-28.7-4.4-43.1c-1.2-14.4-2.1-28.9-0.7-43.5c0.7-7.3,1.9-14.5,3.8-21.6l0.7-2.7l0.8-2.6c0.6-1.7,1.1-3.5,1.6-5.2
		c1.3-3.4,2.4-6.9,3.8-10.2l2.1-5l2.2-5c0.7-1.6,1.4-3.3,2.3-5l1.3-2.5c0.4-0.8,1-1.6,1.4-2.4c3.9-6.3,8.9-11.9,14.5-16.7
		c11.3-9.6,24.6-16.2,38.3-21.2c13.7-5,28-8.3,42.4-10.2c7.2-1,14.5-1.5,21.8-1.6c3.7,0,7.3,0,11,0.4c3.7,0.3,7.5,1,11.1,2
		c7.1,2.1,13.9,4.9,20.5,7.8c6.6,3,13.2,6.2,19.6,9.5c12.9,6.6,25.5,13.6,38.1,20.8"/>
	<path class="st7" d="M468,174.4c0.1,5.6-1.2,11.4-1.7,17c-0.3,2.8-0.6,5.6-1.2,8.3c-0.3,1.3-0.7,2.7-1.2,3.8
		c-0.3,0.6-0.6,1.1-0.9,1.5c-0.2,0.2-0.3,0.3-0.6,0.5l-0.9,0.6c-2.4,1.5-4.8,3-7.2,4.3c-1.2,0.6-2.5,1.3-3.7,1.7
		c-1.2,0.5-2.6,0.8-3.5,0.5c-0.4-0.1-0.7-0.4-0.9-0.9c-0.2-0.5-0.4-1.3-0.7-1.9l-1.3-4c-0.9-2.7-1.8-5.4-2.9-8
		c0,0.4,0.1,0.7,0.1,1.1l-0.4,0.1l-2.8-22.1c-0.5-4-1-8.1-1.6-12.1c0.1-1.2,0.3-2.4,0.5-3.6c0.6-2.6,0.9-6,2.9-7.6
		c1-0.7,3.3-1.9,4.3-2.6c1.2-0.8,2.2-1.2,3.5-1.7c2.6-1,6.8-1.8,9.4-2.1c2.6-0.3,5.4,0.1,7.1,1.9c1.7,1.7,3,5.7,3.4,8.5
		C468.6,163,468,168.8,468,174.4z"/>
	<path class="st6" d="M436.6,164.7c0.6,4,1.1,8,1.6,12.1l2.8,22.1l0.6,4.8c1.1,9,2.2,17.9,3.3,26.9l1.8,13.4c0.3,2.2,0.6,4.5,1,6.7
		l0.6,3.3c0.2,1.1,0.5,2.2,0.7,3.3c-1.5-4.3-2.2-8.8-3.1-13.2c-0.8-4.4-1.7-8.9-2.4-13.3c-1.4-8.9-2.9-17.8-4.2-26.8l-1.9-13.4
		l-1.8-13.4c-1.2-9-2.3-17.9-2.1-27c0.9,3.3,1.6,6.7,2.2,10"/>
	<path class="st6" d="M704.2,620.7c0,1.6,0,3.2-0.2,4.9c0,0.2-0.1,0.4-0.1,0.5l-1.3-0.2l-0.2-1.2c-0.4-0.3-0.8-0.5-1.2-0.7
		c0.1-1.1,0.1-2.2,0.1-3.3c-0.1-3-0.2-6.2-0.4-9.2c-0.5-6.1-1.1-12.2-1.8-18.3c0.5,0.2,0.9,0.3,1.4,0.4c1.3,5.8,2.3,11.7,3,17.6
		C703.8,614.4,704.2,617.5,704.2,620.7z"/>
	<path class="st6" d="M702.6,626l1.3,0.2c-0.2,1.3-0.4,2.7-0.6,4c-1.4,12.4-2.5,24.8-3.6,37.2l-3.1,37.3c-0.5,6.2-0.9,12.5-1.6,18.7
		c-0.7,6.2-1.5,12.4-2.7,18.6c-0.3-6.3-0.2-12.5,0.1-18.8c0.3-6.2,0.9-12.5,1.3-18.7l3-37.4c1.1-12.5,2.1-24.9,3.6-37.4
		c0.1-0.6,0.2-1.3,0.3-1.9C701.4,627.6,702,627,702.6,626z"/>
	<path class="st6" d="M702.4,623.2c0,0.4,0.7,1.5,0.7,1.8c-0.1,0.9-1.3,2.4-1.5,3.3c-0.4,0.2-1.7-0.1-2.1,0
		c-0.6,0.1-1.1,0.2-1.7,0.4l-1.7,0.5c-2.3,0.7-4.5,1.4-6.7,2.3c-4.5,1.6-8.9,3.5-13.3,5.3c-8.8,3.7-17.6,7.8-26.3,11.9
		c-8.7,4.1-17.4,8.4-26,12.6c-8,3.9-16,7.9-24,11.9c0-0.6,0.1-1.2,0.1-1.8c7.4-4.4,15-8.5,22.5-12.7c8.5-4.6,17-9.2,25.7-13.5
		c8.6-4.4,17.4-8.5,26.3-12.5c4.5-1.9,8.9-3.8,13.5-5.5c2.3-0.9,4.6-1.6,7-2.4l1.8-0.6c0.6-0.2,1.2-0.3,1.9-0.4
		C699.3,623.8,701.4,622.9,702.4,623.2z"/>
	<path class="st6" d="M653,475.5C653,475.5,653,475.5,653,475.5c-0.2,0.2-0.4,0.5-0.5,0.7c-3.1-2.9-4.4-6.8-6.2-10.3l-5.6-11.4
		l-11-22.9l-10.8-23c-0.1-0.3-0.2-0.5-0.3-0.7l0.5-0.3l1.2,0.5c0.2-0.3,0.3-0.7,0.5-1c0.1,0.2,0.2,0.3,0.2,0.5l11.3,22.8l11.1,22.9
		l5.5,11.5C650.4,468.1,652.5,471.4,653,475.5z"/>
	<path class="st6" d="M619.9,405.2c-0.3,0.7-0.5,1.4-0.8,2.2l-0.5,0.3c-2.9-6.4-5.9-12.7-8.7-19.1c0.1-0.9,0.1-1.9,0.2-2.8
		C613.3,392.2,616.6,398.7,619.9,405.2z"/>
	<path class="st5" d="M126.6,718.3l-3,8.1l17.4,27.8l1.4-3.6c0.1-0.4,0.5-0.8,0.2-1.1C139.7,746.2,127,722.5,126.6,718.3z"/>
	<path class="st5" d="M540.5,688.4l0.7,12.7c0,0,53,6.9,53,6.5s-0.2-10.2-0.2-10.2L540.5,688.4z"/>
	<g>
		<path class="st4" d="M235.7,168.7c0,0,7.1,55.8,21.6,81.1c18.7,32.7,84.5,57.8,93.8,55.7c22.8-5.3,48.8-20.5,68.5-53.7
			c15.5-26.1,8.4-43.4,8.4-43.4s-3-28-6.7-32.3c-3.7-4.3-59.8-10.4-71.2-7.4c-11.3,3-29,13.3-47.7,12
			C283.9,179.3,242.3,162.4,235.7,168.7z"/>
		<path class="st6" d="M236.1,168.8C236.2,168.8,236.2,168.8,236.1,168.8L236.1,168.8l0.1,0.4l0.1,0.6l0.2,1.3l0.4,2.6l0.8,5.1
			c0.6,3.4,1.2,6.8,1.8,10.2c1.3,6.8,2.7,13.5,4.3,20.2c1.6,6.7,3.5,13.3,5.6,19.9c2.2,6.5,4.6,13,7.8,19c3.2,6,7.7,11.2,12.6,15.9
			c4.9,4.7,10.4,8.9,16,12.8c11.4,7.7,23.6,14.1,36.3,19.4c6.3,2.6,12.8,5,19.4,6.8c1.6,0.4,3.3,0.8,4.9,1.1
			c1.6,0.2,3.3,0.5,4.6,0.1c3.3-0.8,6.6-1.8,9.8-2.9c12.8-4.6,24.5-12.1,34.5-21.3c10-9.2,18.5-20.2,25.2-32.1
			c3.3-6,5.9-12.4,7.2-19c0.7-3.3,1.1-6.7,1.1-10.1c0-3.4-0.4-6.9-1.4-10l0-0.1l0,0l0,0c-0.6-4.6-1.3-9.2-2.2-13.8
			c-0.8-4.6-1.7-9.1-3-13.5c-0.3-1.1-0.7-2.2-1.2-3.1c-0.2-0.5-0.5-0.9-0.7-1.2c-0.1-0.1-0.6-0.4-1.1-0.6c-2-0.8-4.3-1.3-6.5-1.7
			c-4.5-0.9-9.1-1.5-13.7-2.1c-9.2-1.1-18.5-1.9-27.7-2.4c-4.6-0.2-9.2-0.3-13.8-0.2c-2.3,0.1-4.6,0.2-6.6,0.7c-1,0.2-2.1,0.6-3.1,1
			c-1.1,0.4-2.1,0.8-3.2,1.2c-4.3,1.6-8.6,3.5-13,5.1c-4.4,1.6-9,3-13.7,4c-4.7,1-9.6,1.5-14.5,1.3c-5-0.2-9.6-1.2-14.2-2.2
			c-9.2-2.1-18.1-4.8-27.1-7.1c-4.5-1.2-9-2.3-13.4-3.1c-2.2-0.4-4.5-0.7-6.6-0.8c-1.1-0.1-2.1,0-3,0.1c-0.5,0-0.9,0-1.4-0.2
			c-0.2-0.1-0.5-0.2-0.8-0.3l-0.5-0.2C236.6,169.1,236.4,168.9,236.1,168.8z M235.2,168.5c0-0.2,0-0.6,0.2-0.9
			c0.1-0.2,0.2-0.4,0.3-0.7c0.2-0.4,0.5-0.8,0.8-1c0.6-0.5,1.4-0.9,2-1c1.4-0.2,2.7-0.2,4-0.1c2.5,0.1,4.9,0.5,7.3,0.9
			c4.7,0.9,9.3,2,13.8,3.2c9,2.4,18,5.1,26.9,7.2c4.5,1,9,2,13.3,2.2c4.4,0.2,8.9-0.2,13.3-1.1c8.9-1.8,17.4-5.3,26.2-8.6
			c1.1-0.4,2.2-0.8,3.4-1.2c1.2-0.4,2.3-0.7,3.6-1c2.6-0.5,4.9-0.6,7.3-0.6c4.8-0.1,9.4,0.1,14.1,0.5c9.4,0.7,18.6,1.7,27.9,3.1
			c4.6,0.7,9.2,1.5,13.8,2.6c2.3,0.6,4.6,1.1,6.9,2.1c0.6,0.3,1.2,0.5,1.9,1.3c0.5,0.6,0.8,1.2,1,1.8c0.5,1.2,0.8,2.3,1.2,3.5
			c1.2,4.6,1.9,9.2,2.6,13.8c0.6,4.6,1.1,9.3,1.5,13.9l0,0l0-0.1c1.2,3.4,1.6,6.9,1.8,10.4c0.1,3.5-0.2,7-0.8,10.4
			c-1.2,6.9-3.7,13.5-6.9,19.7c-3.3,6.2-7,12-11.2,17.6c-4.2,5.6-8.8,10.8-13.9,15.6c-10.2,9.5-22.3,17.1-35.6,21.8
			c-3.3,1.2-6.7,2.2-10.1,3c-0.4,0.1-1,0.2-1.5,0.2c-0.5,0-1,0-1.4,0c-0.9-0.1-1.8-0.2-2.7-0.3c-1.8-0.3-3.5-0.7-5.2-1.2
			c-6.8-1.8-13.3-4.3-19.6-7c-12.8-5.5-25.1-12-36.5-19.9c-5.7-4-11.2-8.3-16.2-13.1c-5-4.9-9.6-10.3-12.9-16.5
			c-3.3-6.2-5.7-12.7-7.8-19.3c-2.1-6.6-3.8-13.3-5.4-20c-1.6-6.7-2.9-13.5-4.1-20.3c-0.6-3.4-1.2-6.8-1.7-10.2l-0.8-5.1l-0.4-2.6
			l-0.2-1.3l-0.1-0.6l0-0.3l0-0.2C235.2,168.8,235.2,168.6,235.2,168.5z"/>
	</g>
	<path class="st6" d="M393.6,227.6L393.6,227.6c-1.5,1-3.1,1.9-4.7,2.7c-0.4,0.2-0.8,0.4-1.2,0.6c-0.2,0.1-0.4,0.2-0.5,0.3
		c-0.1,0.1-0.3,0.3-0.4,0.4c-0.6,0.6-1.2,1.3-1.8,2c-2.5,2.7-5.6,5.1-9.3,6.3c-3.7,1.2-7.6,1.2-11.3,0.3c-3.7-0.9-7.2-3.1-9-6.4
		c3.2,1.9,6.3,3.2,9.6,3.9c1.7,0.4,3.3,0.5,5,0.4c1.7-0.1,3.4-0.2,5-0.7c3.2-0.9,6.1-2.8,8.7-5.2c0.7-0.6,1.3-1.2,2-1.9
		c0.2-0.2,0.4-0.3,0.6-0.5c0.3-0.2,0.5-0.3,0.7-0.4c0.4-0.2,0.8-0.4,1.3-0.5C390,228.3,391.8,227.9,393.6,227.6z"/>
	<path class="st6" d="M377.4,204.5c-2.5,2.7-5.5,4-8.5,4.9c-3.1,0.8-6.2,1.3-9.4,1.4c-3.2,0.1-6.4-0.1-9.6-0.4
		c-1.6-0.2-3.2-0.4-4.8-0.8c-1.5-0.4-3.2-0.9-4.4-2c3.2,0.1,6.1,0,9.2-0.4c3-0.4,6-1.2,9-1.9c1.5-0.3,3-0.7,4.5-0.9
		c1.5-0.3,3-0.5,4.5-0.8c1.5-0.2,3.1-0.3,4.7-0.2C374,203.6,375.7,203.9,377.4,204.5z"/>
	<path class="st6" d="M294.8,244.8c-1.4,2.5-3.2,4.7-5.7,6.5c-1.2,0.9-2.7,1.6-4.3,1.9c-0.8,0.1-1.6,0.2-2.3,0.2
		c-0.7,0-1.5-0.1-2.2-0.2c-1.5-0.2-2.9-0.5-4.3-1c-1.4-0.5-2.7-1.1-3.9-1.4c-0.3-0.1-0.5-0.1-0.8-0.1c-0.3,0.1-0.6,0.1-1,0.2
		c-0.7,0.2-1.3,0.4-2,0.6c-1.3,0.5-2.7,1-4,1.4l0,0c1.2-0.8,2.4-1.5,3.7-2.2c0.6-0.3,1.3-0.7,1.9-1c0.3-0.2,0.7-0.3,1.1-0.4
		c0.4-0.1,1-0.2,1.3-0.1c3,0.4,5.6,0.9,8.3,1.2l2,0.2c0.7,0.1,1.4,0.1,1.9,0.1c1.2,0,2.5-0.2,3.7-0.7
		C290.8,248.8,293,246.9,294.8,244.8z"/>
	<path class="st6" d="M275.6,218.5c-0.5,2.5-2.2,4.7-4,6.4c-1.9,1.8-3.9,3.3-6.1,4.7c-1.1,0.7-2.2,1.3-3.3,1.9
		c-1.2,0.5-2.3,1.1-3.5,1.5c-0.6,0.2-1.2,0.4-1.8,0.6c-0.6,0.2-1.2,0.4-1.8,0.5c-1.3,0.2-2.6,0.1-4.1-0.9l0-0.1
		c1.6-3.2,4-3.3,6.2-4.3c1.1-0.4,2.2-0.9,3.3-1.2c1.1-0.4,2.2-0.8,3.3-1.2c2.2-0.8,4.4-1.9,6.4-3.1C272,221.8,274,220.5,275.6,218.5
		z"/>
	<ellipse class="st9" cx="277.9" cy="259.7" rx="10.5" ry="3.3"/>
	<ellipse transform="matrix(0.866 -0.5 0.5 0.866 -67.0655 229.3062)" class="st9" cx="394.4" cy="239.8" rx="10.5" ry="3.8"/>
	<g>
		<path class="st6" d="M325.6,263.7c-0.3,0.5-0.6,1-0.8,1.5c-0.2,0.5-0.3,0.9-0.1,1.2c0.1,0.3,0.5,0.5,1,0.7c0.5,0.2,1,0.3,1.6,0.4
			c2.2,0.3,4.4,0.2,6.6-0.2c1.1-0.2,2.2-0.4,3.3-0.8c1-0.4,2.2-0.8,2.9-1.4c0.7-0.6,1.2-1.7,0.8-2.5c-0.4-0.8-1.5-1.2-2.7-1.4
			c0.6-0.2,1.2-0.3,1.8-0.2c0.6,0.1,1.3,0.5,1.7,1.1c0.4,0.6,0.4,1.4,0.2,2.1c-0.2,0.7-0.6,1.2-1.1,1.7c-0.5,0.5-1,0.7-1.6,1
			c-0.5,0.3-1.1,0.5-1.6,0.7c-1.1,0.4-2.3,0.7-3.4,1c-2.3,0.4-4.7,0.6-7.1,0.1c-0.6-0.1-1.2-0.3-1.8-0.5c-0.6-0.3-1.3-0.6-1.6-1.4
			c-0.2-0.4-0.1-0.9,0-1.2c0.1-0.4,0.3-0.6,0.5-0.9C324.5,264.3,325,263.9,325.6,263.7z"/>
	</g>
	<g>
		<path class="st4" d="M328.7,283.9c0,0,13.2-4.8,23.2-4.8"/>
		<path class="st6" d="M328.7,283.9c1.7-1.2,3.6-1.8,5.5-2.4c1.9-0.7,3.8-1.3,5.7-1.8c1.9-0.5,3.9-1,5.9-1.3c1-0.1,2-0.3,3-0.4
			c0.5,0,1-0.1,1.5-0.1c0.5,0,1,0.1,1.5,0.8v1c-0.5,0.7-1,0.8-1.4,0.9c-0.5,0-1,0.1-1.4,0.1c-1,0.1-1.9,0.2-2.9,0.3
			c-1.9,0.2-3.9,0.5-5.8,0.8c-1.9,0.3-3.9,0.7-5.8,1.1C332.6,283.2,330.7,283.8,328.7,283.9z"/>
	</g>
	<g>
		<path class="st6" d="M435.5,165.3c0.1-3.3,1.5-6.3,3.2-9c1.7-2.7,4-5.2,6.8-7c2.8-1.8,6-2.9,9.4-3.3c3.3-0.3,6.6,0,9.8,0.6
			c3.2,0.7,6.3,2.1,9,3.9c2.8,1.8,5.1,4.2,7,6.9c1.9,2.7,3.3,5.8,4,9c0.3,1.6,0.5,3.4,0.5,5c0,1.6-0.2,3.2-0.3,4.8
			c-0.7,6.3-2.1,12.5-4.3,18.5c-1.1,3-2.5,5.9-4.2,8.7c-0.9,1.4-1.8,2.7-2.9,3.9c-0.5,0.6-1.1,1.2-1.7,1.8c-0.6,0.5-1.2,1.1-1.9,1.6
			c-2.6,2-6,3.3-9.3,3.3c-3.2,0.1-6.5-0.3-9.6-1.4c-3.1-1.1-5.8-3.2-7.9-5.7c-0.6-0.6-1-1.3-1.4-2c-0.4-0.7-0.8-1.4-1.1-2.2
			c-0.7-1.4-1.3-3.1-0.8-4.8l0.1,0c1.1,1.3,1.6,2.7,2.2,4c0.3,0.7,0.7,1.3,1.1,2c0.4,0.6,0.8,1.2,1.3,1.8c1.9,2.3,4.4,4,7.2,5
			c2.8,1,5.8,1.3,8.8,1.1c2.9-0.2,5.7-1.2,8-3c0.6-0.4,1.1-1,1.7-1.4c0.5-0.5,1-1,1.5-1.6c1-1.1,1.8-2.4,2.6-3.7
			c1.5-2.6,2.8-5.4,3.8-8.3c2-5.8,3.4-11.8,4-17.9c0.2-1.5,0.3-3,0.3-4.5c0-1.5-0.1-2.9-0.4-4.3c-0.6-2.8-1.9-5.6-3.6-8
			c-1.7-2.4-3.8-4.5-6.3-6.1c-2.4-1.6-5.2-2.8-8.1-3.4c-2.9-0.6-5.9-0.8-8.8-0.6c-2.9,0.4-5.7,1.2-8.2,2.8c-2.5,1.5-4.7,3.5-6.5,5.9
			C438.7,160,437.3,162.7,435.5,165.3z"/>
	</g>
	<g>
		<path class="st6" d="M448.9,188.8c0.1-0.6,0.4-0.9,0.8-1.2c0.4-0.3,0.7-0.6,1.1-0.8c0.8-0.5,1.6-1,2.6-1.2c0.9-0.3,2-0.4,3.1,0
			c0.3,0.1,0.5,0.2,0.7,0.4c0.2,0.1,0.5,0.3,0.6,0.4c0.4,0.3,0.7,0.6,1.1,1c1.3,1.4,2.4,3,2.9,4.9c0.1,0.5,0.2,1,0.3,1.5
			c0,0.5,0.1,1-0.1,1.5c-0.2,0.5-0.5,0.9-0.8,1.3c-0.2,0.2-0.3,0.4-0.4,0.6c-0.1,0.1-0.1,0.2-0.2,0.3l-0.1,0.1c0,0-0.1,0.1,0.4,0.4
			l-0.9-0.5c0.5,0.2,0.5,0.2,0.5,0.1l0.1-0.2c0-0.1,0.1-0.2,0.1-0.3c0.1-0.2,0.1-0.5,0.1-0.7c0-0.5-0.1-0.9-0.2-1.3
			c0-0.2-0.1-0.4-0.1-0.6c0-0.2,0-0.4-0.1-0.6c0-0.4-0.1-0.8-0.3-1.2c-0.5-1.5-1.4-3-2.5-4.2c-0.3-0.3-0.6-0.6-0.9-0.9
			c-0.2-0.2-0.3-0.2-0.4-0.4c-0.1-0.1-0.3-0.2-0.4-0.3c-0.6-0.3-1.4-0.3-2.2-0.2c-0.8,0.2-1.6,0.5-2.3,0.9c-0.4,0.2-0.8,0.4-1.1,0.7
			C449.9,188.6,449.5,188.8,448.9,188.8z"/>
	</g>
	<g>
		<path class="st6" d="M450.3,187.9c-0.9-1.4-1.7-2.9-2.4-4.4c-0.7-1.5-1.2-3.1-1.6-4.8c-0.3-1.7-0.5-3.5,0-5.3
			c0.2-0.9,0.6-1.8,1.2-2.5c0.6-0.8,1.3-1.4,2-1.9c3-2,6.7-2.7,10.1-2c1.7,0.4,3.5,1.1,4.9,2.3c0.7,0.6,1.3,1.4,1.6,2.3
			c0.2,0.4,0.2,0.9,0.2,1.4c-0.1,0.5-0.2,0.9-0.4,1.3c-0.3-0.4-0.5-0.8-0.7-1.1c-0.3-0.3-0.4-0.6-0.6-0.9c-0.4-0.5-0.8-1.1-1.3-1.6
			c-1.1-0.9-2.5-1.5-3.9-1.8c-1.5-0.3-3-0.3-4.5,0c-1.5,0.3-2.9,0.9-4.1,1.7c-1.3,0.8-2.1,1.8-2.5,3.2c-0.4,1.4-0.4,2.9-0.1,4.5
			c0.5,3.1,1.7,6.1,3.1,9L450.3,187.9z"/>
	</g>
	<g>
		<path class="st6" d="M478.7,127.5l-2-50.9L476.1,64l-0.3-6.3c-0.1-1-0.1-2.1-0.2-3.1l0-0.3c0,0,0-0.1,0,0.1l0.1,0.2
			c0,0.1,0,0.1,0.1,0.3c0.3,1.3,3,1.5,2.2,1.4l-0.2,0c-0.1,0-0.3,0-0.4-0.1l-0.2-0.1l-0.1,0c-0.4-0.1-0.6-0.2-0.9-0.4l-1.5-0.7
			c-7.8-3.6-15.4-7.1-23.1-10.8l2.1-4.5c7.7,3.6,15.4,7.3,23,10.8l1.4,0.6l0.6,0.2c0,0,0,0-0.1,0l-0.1,0c-0.1,0-0.2,0-0.3,0l-0.2,0
			c-0.8-0.2,1.9,0.1,2.2,1.4c0.1,0.2,0.1,0.2,0.1,0.3c0,0.1,0.1,0.2,0.1,0.2c0.1,0.3,0.1,0.4,0.1,0.5l0,0.5c0.1,1.1,0.1,2.2,0.2,3.3
			l0.3,6.4l0.4,12.7l1.4,50.9L478.7,127.5z"/>
	</g>
</g>
<g id="doula">
	<polygon class="st10" points="657.8,434.9 643.7,456.5 653,476.6 656.2,474.7 667.2,485.5 669.9,480.9 691.7,500.9 702.7,511.3 
		713.2,524.8 698.4,471.7 689.4,467.7 668.6,463.7 660.8,453.8 656.9,447.2 	"/>
	<path class="st11" d="M620.3,406.5l24.5,49.8l13.8-22.4l-5.1,28.2l4,9.1c0,0,8.7,7.1,9.5,7.3c0.4,0.1,7.1,2.8,14.2,3.8
		c7.1,0.9,14.7,0,14.8,0.1c0.1,0.1,26.9,64.7,26.9,64.7l14,41.5l-2.6,8.6l7,37.2l11.5,14.8l23.6,15.5l35.1,7.5
		c0,0,37.8-5.6,38.8-5.6c1,0,49.8-17.8,49.8-17.8l32.8-15.8l23.3-17.8l13.3-12.7l5.7-7.8l-9.2-26.6l-25.8-104l12.7-75.2l1.3-28.2
		l-5.1-17l-20.3-25.1l-15.9-11l-20.1-6.1l-20.9-5.9l-10.2,9L835.9,326c0,0-10.5,11.7-41,14.5c-32.8,3.1-53.9,3.7-71.8-10.8
		c-17.9-14.5-22.4-28.4-25.4-38s-10.3-6.3-15-1.7c-4.7,4.5-19.5,18.1-31.9,46.5c-12.5,28.4-30.1,69.6-30.1,69.6L620.3,406.5z"/>
	<polygon class="st10" points="1011.7,363.7 995.9,322.7 968.7,296.2 935.7,258.2 930.2,234.2 938.1,206.7 948.5,170.3 948.4,152.1 
		946.8,141.2 944.1,132.7 932.8,106.2 904.3,72.3 871.7,53.3 842.2,52.1 812.9,61.3 803.4,68.8 788.3,54 758.9,59.2 698.6,102 
		696.8,109.5 690.5,127.6 676.2,156.3 668.3,181.8 670.5,245.4 665.9,275.8 666,275.8 664.4,281.4 651.9,331.7 661.4,314.2 
		673.2,296.2 686.9,287.2 691.9,286.3 873.8,289.8 869.4,296.2 893.7,300.9 920.9,312.9 946,340 952.2,356.7 951.2,393.9 
		940.9,463.2 960.1,548.8 977.2,546.7 988.7,537.7 991.7,525.9 988.4,520.9 981.2,524.4 971.7,522.4 968.4,511.9 975.7,495.7 
		997.4,462.7 1017.7,428.9 1018.2,400.7 	"/>
	<polygon class="st12" points="868.6,297.8 864.9,303.4 865.2,310.7 869.2,314.2 880.7,315 901.3,307.4 910.6,297.3 911.9,284.7 
		908.1,272.9 899.7,266.9 887.4,268.3 884.1,270.9 877.3,286.3 	"/>
	<polygon class="st12" points="698.6,198.7 689.4,238.5 690.1,259.2 694.3,285 703.9,305.2 727.1,328.2 747.6,338.5 776.3,341 
		817.1,336.5 838.7,324.4 854.9,311.2 878.2,285 886,265.7 888.4,244.9 887.6,227.2 883.7,215.2 875.4,204.2 854.5,188.8 828.8,169 
		798,145.2 793.5,148.1 774.3,160.3 746.6,179 	"/>
	<path class="st12" d="M702.3,301.5c0,0,20.9,44.5,26.3,56.8s22.8,34.9,29.2,33.6c6.3-1.3,53.3-50.7,67.2-60.9
		C838.9,320.9,702.3,301.5,702.3,301.5z"/>
	<path class="st12" d="M848.3,582.3l-32.6,5.2l-29.8,5.8l-61.2,0.4l-23.1-0.4l-4.7-1.8l-4.3-5.7l-10-25l-4.8-12.5l-11.4-17.8l-5.1-7
		l0.5-6.8l2.7-4.5l0.5-1.4l-10.6-14.1L652,488l-0.4-9l3.5-4.4c0,0,2.5,1,2.7,0.9c0.1-0.1,6.3,6.4,6.3,6.4l3.6,4.3
		c0,0-1.1-2.8-0.6-3.6c0.5-0.8,1.6-2.7,2.5-2s9.7,8.6,9.7,8.6l19.7,18.3l9.8,12.4l10.9,9.1l12.1,12.1l3.8,10.5c0,0,7,0.2,7.3,0
		c0.3-0.2,13.3-5,13.3-5l39.3-14.8l8.7-2.2c0,0,14.1-1.8,30.9,21.7c7.6,10.6,13.2,26.2,13.5,28.8
		C848.8,582.5,848.3,582.3,848.3,582.3z"/>
	
		<ellipse transform="matrix(0.1206 -0.9927 0.9927 0.1206 392.8621 906.8604)" class="st9" cx="708.3" cy="231.7" rx="4.5" ry="10.1"/>
	
		<ellipse transform="matrix(0.535 -0.8448 0.8448 0.535 150.0342 841.0858)" class="st9" cx="839.1" cy="284.2" rx="5.4" ry="10.1"/>
	<path class="st10" d="M794.5,138.8c0,0,5,29.3,16.3,51.6c11.3,22.3,42.9,47.3,56.2,51.4s19.8,27.9,19.8,27.9s26.4-60.9,14.4-72.5
		C889.2,185.6,794.5,138.8,794.5,138.8z"/>
	<path class="st6" d="M701.1,301.8c0,0,27.3,57.6,27.7,57.8c11.7,6.4,53.3-18.5,53.3-18.5l-29.7-0.8l-16.2-5.3L701.1,301.8z"/>
	<line class="st6" x1="905.7" y1="303.3" x2="904.6" y2="306.8"/>
</g>
<g id="Layer_7">
	<g>
		<g id="XMLID_2_">
			<g>
				<path class="st6" d="M656.2,449.4c0,0.1-0.3,0.5-0.4,0.5l-0.2,0l-0.5-0.1c2-14.4,3.8-28.9,4.7-43.4c0.2-3.7,0.4-7.3,0.3-10.9
					c-0.1-3.6-0.6-7.2-1.3-10.7c-1.4-7.2-3.2-14.3-4.4-21.7c-1.3-7.3-1.8-14.8-1.4-22.3c0-1.3,0.2-2.6,0.3-3.9
					c0.8-1.9,1.5-3.8,2.2-5.7c0.8-2.1,1.6-4.3,2.3-6.4l0.7,0.2c-0.5,1.7-0.8,3.5-1.2,5.2c-0.3,1.8-0.5,3.6-0.8,5.4
					c-0.1,1.8-0.4,3.6-0.4,5.4c-0.3,7.2,0.1,14.5,1.2,21.7c1.1,7.2,2.8,14.3,4.1,21.7c0.7,3.7,1.2,7.4,1.2,11.2
					c0,3.7-0.2,7.4-0.4,11.1c-0.6,7.4-1.5,14.7-2.4,22C658.7,435.7,657.5,442.2,656.2,449.4z"/>
				<path class="st6" d="M980.1,614c-0.2,0.2-0.3,0.4-0.5,0.5c0.1,0,0.2,0,0.3,0L980.1,614z M981.2,614.2l-1.2,0.4
					c-0.5,0.6-0.7,1.1-0.7,1.5c-0.4-0.9-0.7-2.2-0.7-2.4l-0.3-1.2l-0.6-2.4l-1.3-4.7l-2.5-9.5c0,0-5.1-13.9-6.5-18.7
					c-3.8-12.5-8.9-24.7-11.6-37.6c-2-9.7-6.3-38.9-6.3-38.9s6.7,28.6,9.2,38.1c2.6,9.5,8.7,28.2,11.9,37.5
					c1.6,4.7,6.6,18.7,6.6,18.7l2.6,9.5l1.3,4.7l0.6,2.4l1.1,3.7C982.4,614.8,982,614.5,981.2,614.2L981.2,614.2z"/>
				<path class="st6" d="M756.8,257.8c0.3-0.2,0.7-0.4,1-0.5c0.1,0,0.2-0.1,0.3-0.1c-0.2,0.5-0.4,0.9-0.6,1.4l-0.9-0.4
					C756.7,258,756.8,257.9,756.8,257.8z"/>
				<path class="st6" d="M756.6,258.1l0.9,0.4c0.2-0.5,0.4-1,0.6-1.4c1.7-0.7,3.6-0.8,5.4-0.8c1.9,0.1,3.8,0.4,5.6,1.1
					c1.8,0.7,3.4,1.5,5,2.6c0.8,0.5,1.5,1.1,2.2,1.8c0.1,0.1,0.1,0.1,0.2,0.2c-0.1,0.4-0.2,0.9-0.4,1.3l0.9,0.3
					c0.1-0.2,0.1-0.5,0.1-0.7c0.3,0.5,0.6,1,0.8,1.5c0.3,1,0.3,2.1,0.1,3c-0.1,0.5-0.3,1.1-0.7,1.5c-0.4,0.4-0.9,0.7-1.4,0.8
					c-1,0.3-1.9,0.2-2.9,0.1c-0.9-0.2-1.8-0.4-2.6-0.8c0.9,0.2,1.8,0.3,2.7,0.3c0.9,0,1.8-0.1,2.5-0.4c0.4-0.2,0.6-0.4,0.8-0.7
					c0.2-0.3,0.3-0.6,0.3-1c0.1-0.8,0-1.6-0.3-2.3c-0.6-1.4-2-2.4-3.5-3.2c-0.7-0.4-1.5-0.8-2.3-1.2c-0.8-0.4-1.5-0.7-2.3-1
					c-1.6-0.6-3.3-0.9-5-1.2c-1.7-0.2-3.5-0.2-5,0.2c-0.8,0.2-1.5,0.6-1.9,1.2c-0.4,0.6-0.6,1.4-0.4,2.2c0.2,0.8,0.6,1.6,1.2,2.3
					c0.6,0.7,1.2,1.3,1.9,1.9c-0.8-0.5-1.5-1-2.2-1.6c-0.7-0.6-1.3-1.4-1.6-2.3c-0.3-0.9-0.3-2.1,0.3-3c0.3-0.6,0.8-1,1.3-1.3
					C756.8,257.9,756.7,258,756.6,258.1z"/>
				<path class="st6" d="M777.1,262.9c0,0.2-0.1,0.5-0.1,0.7l-0.9-0.3c0.1-0.4,0.3-0.9,0.4-1.3C776.7,262.3,776.9,262.6,777.1,262.9
					z"/>
				<path class="st6" d="M1004.2,693.7l-1.2,0.4c-2.2-6.5-4.2-13.1-6.4-19.7l-6.1-19.8c-2-6.6-4-13.2-6-19.8l-2.9-9.9l-1.4-5
					l-0.7-2.5c-0.1-0.2-0.1-0.3-0.2-0.5c0.1-0.1,0.2-0.2,0.2-0.3c0.1,0.2,0.3,0.3,0.5,0.4c0.1-0.1,0.1-0.8,0.2-1.2
					c0.3-0.3,0.6-0.7,0.8-1h0l0.1-0.6l0.1,1.2c0.9-0.7,1.8,1.1,1.7,0.7l-0.2-0.8c0.2,0.3,0.3,0.7,0.4,1.1l0.7,2.5l1.4,5l2.9,9.9
					c1.9,6.6,3.8,13.3,5.6,19.9l5.4,20C1000.8,680.3,1002.6,687,1004.2,693.7z"/>
				<path class="st6" d="M982.9,616.1c0.2,0.4-0.8-1.4-1.7-0.7l-0.1-1.2l0,0c0.8,0.3,1.3,0.6,1.5,1.1L982.9,616.1z"/>
				<polygon class="st6" points="981.2,614.2 981.2,614.2 981.2,614.2 				"/>
				<path class="st6" d="M981.2,614.2L981.2,614.2l-0.5,0.6l-0.4,0.1l0,0.7c0,0-0.1,0.1-0.1,0.2c-0.2,0.3-0.4,0.5-0.7,0.8
					c-0.1-0.1-0.2-0.3-0.3-0.5c0,0,0,0,0,0c0-0.4,0.2-0.9,0.7-1.5L981.2,614.2z"/>
				<path class="st6" d="M981.2,614.2l-0.1,0.6h0c-0.3,0.3-0.6,0.7-0.8,1c0-0.1,0.1-0.2,0.1-0.2l0-0.7l0.4-0.1L981.2,614.2z"/>
				<path class="st6" d="M979.5,616.6c0.2-0.3,0.4-0.5,0.7-0.8c-0.1,0.4-0.1,1-0.2,1.2C979.8,616.9,979.7,616.8,979.5,616.6z"/>
				<path class="st6" d="M980.1,614l-0.1,0.6c-0.1,0-0.2,0-0.3,0C979.8,614.3,979.9,614.1,980.1,614z"/>
				<path class="st6" d="M979.5,616.6c-0.1,0.1-0.2,0.2-0.2,0.3c-0.1-0.3-0.1-0.5-0.1-0.8C979.3,616.3,979.4,616.5,979.5,616.6z"/>
				<path class="st6" d="M954.3,362c0.1,3.5,0,7-0.1,10.5c-0.6,13.9-2.4,27.7-4.3,41.5c-1,6.9-2,13.7-3.2,20.6
					c-1.1,6.9-2.5,13.7-3.5,20.5c-0.4,2.8-0.7,5.7-1.1,8.5c-0.1-0.5-0.2-1-0.4-1.5l-1.2,0.3l-0.5-0.1c0.3-2.5,0.6-5,0.9-7.5
					c0.9-6.9,2.3-13.7,3.3-20.6c1.1-6.8,2.1-13.7,3-20.5c1.8-13.7,3.4-27.5,3.9-41.3c0.1-3.4,0.2-6.9,0-10.3
					c-0.1-3.4-0.4-6.8-1.3-9.9c-1.1-3.6-2.8-7-4.7-10.3l1.3-0.8c0.6-0.2,1.1-0.4,1.7-0.6c2,3.4,3.6,6.9,4.8,10.7
					C954,354.9,954.2,358.5,954.3,362z"/>
				<path class="st6" d="M951.7,500.1c0,0,4.4,29.2,6.9,38.7c-2.5-9.5-9.2-38.1-9.2-38.1c0,0,0,0,0-0.1c-0.4-1.9-0.9-3.8-1.3-5.7
					c-2.2-10.4-3.3-21.1-5.8-31.4C945.2,475.8,948.4,487.9,951.7,500.1z"/>
				<path class="st6" d="M949.4,500.7c0,0,4.3,29.3,6.3,38.9c-2-9.7-8.6-38.3-8.6-38.3c-2.6-11-3-22.5-5.3-33.5
					c1.9,9.1,4.1,18.1,6.3,27.2C948.4,496.9,948.9,498.7,949.4,500.7C949.4,500.6,949.4,500.7,949.4,500.7z"/>
				<path class="st6" d="M948,495c0.4,1.9,0.9,3.8,1.3,5.7C948.9,498.7,948.4,496.9,948,495z"/>
				<path class="st6" d="M947.4,339.3c0.3,0.4,0.5,0.9,0.8,1.3c-0.6,0.2-1.1,0.4-1.7,0.6L946,340C946.5,339.8,947,339.5,947.4,339.3
					z"/>
				<path class="st6" d="M947.4,339.3c-0.5,0.2-0.9,0.4-1.4,0.7l0.4,1.2l-1.3,0.8c-1.5-2.5-3.2-5-5-7.3c-4.1-5.4-8.9-10.4-14-14.9
					c-5.1-4.5-10.7-8.6-16.7-11.3c-0.7-0.3-2.9-1-4.9-1.6c-0.6-0.2-1.5-0.4-1.5-0.4l-0.7-0.2c-0.2,0-0.2-0.1-0.6-0.5
					c1.3-0.9,1.4-0.8,2.2-2c0.4-0.3,0.8-0.2,1.1-0.4l0.4,0.1c0,0,0.3,0,0.8,0.1c2.1,0.6,4.1,1.3,4.8,1.6c6.6,3.1,12.2,7.4,17.5,12.1
					c5.3,4.7,10.1,9.9,14.3,15.5C944.5,334.8,946,337,947.4,339.3z"/>
				<path class="st6" d="M942.2,463.6c2.5,10.3,3.5,21,5.8,31.4c-2.2-9-4.3-18.1-6.3-27.2C941.9,466.4,942.1,465,942.2,463.6z"/>
				<path class="st6" d="M941.9,462.1c0.1,0.5,0.2,1,0.4,1.5c-0.2,1.4-0.3,2.8-0.5,4.2c-0.4-1.8-0.8-3.6-1.1-5.5L941.9,462.1z"/>
				<path class="st6" d="M940.6,462.3c0.4,1.8,0.7,3.6,1.1,5.5c-1,9.5-1.8,19.1-2.6,28.6c-1,13.8-1.9,27.6-2.4,41.5
					c-0.3,6.9,0,13.8,0.2,20.7c0.3,6.9,0.6,13.8,1.1,20.8l0,0.6l-0.6,0c-19.7,0.8-39.3,1.5-59,2l-13.7,0.3c-0.1-0.5-0.2-0.9-0.4-1.4
					l14.1-0.3c19.4-0.5,38.9-1.1,58.3-1.8c0,0.2,0,0.4,0.1,0.6l0.6-0.7c-0.2,0-0.4,0-0.7,0c-0.5-6.7-0.9-13.4-1.2-20.1
					c-0.3-6.9-0.6-13.9-0.4-20.8c0.4-13.9,1.1-27.7,2-41.6c0.8-11.3,1.6-22.6,2.9-34L940.6,462.3z"/>
				<path class="st6" d="M937.5,578.7l-0.6,0.7c0-0.2,0-0.4-0.1-0.6C937.1,578.8,937.3,578.8,937.5,578.7z"/>
				<path class="st6" d="M878.1,247.4c1.4,2,10.4,15.6,8.7,20.4c-1.1,2.8-0.6,2.3-2.7,7.4c-0.5,1.3-1.1,2.6-1.7,3.8
					c-0.3,0.7-0.8,1.3-1.1,1.9l-1.1,1.7l-4.5,6.9c-1.1,1.6-2.3,3.5-3.4,5.1c-0.6-0.2-1.1-0.6-1.7-0.7l-0.4-0.2
					c1.2-1.8,2.4-3.6,3.6-5.4l4.5-6.9l1.1-1.7c0.4-0.6,0.8-1.1,1-1.7c0.6-1.2,1.2-2.4,1.7-3.7c2.1-5,2.8-6.1,3.1-8.2
					c0.4-2.5-5.9-14.1-8.5-17.1c-1.8-2-4.5-3.8-7.8-5.4c-2.2-1.1-7.4-3.4-10-5.5c-4.3-3.3-8.6-5.6-13-8.8
					c-4.5-3.2-14.4-10.5-21.1-19c-4.2-5.3-11.5-14-15.3-22.4c-2.2-5-7-14.8-8.6-20c-1.5-4.7-4.1-19.2-4.1-19.2l-0.7-2.7
					c-0.2-0.9-0.2-1-0.3-1.8l-0.1-0.9c0-0.4,0-0.6,0-0.8l0-0.5c-0.2-1.2-0.2-1.7-0.9-3c1.4,0.4,2,3.5,2.1,4.9l0.8,3.7
					c0,0,3,14.4,4.6,19.1c1.7,4.8,6.2,14,8.6,18.5c3.1,5.9,9.9,17.7,14.6,22.6c3.8,4,16.2,14.5,20.7,17.6c4.4,3.2,8.9,5.8,13.2,9.3
					c4.3,3.5,6.7,4.8,10.2,6.5C872,242.8,874.8,242.9,878.1,247.4z"/>
				<path class="st6" d="M868.1,446.5c0,7.9-0.2,15.8-0.3,23.7c-0.2,7.9-0.1,15.8-0.4,23.7c-0.2,3.9-0.4,7.9-0.7,11.8
					c-0.3,3.5-0.6,7.1-1.1,10.6c-0.4,0-0.9,0-1.3,0.1c0.6-7.5,0.8-15,0.9-22.5c0.2-7.9,0-15.7,0.1-23.6l0.3-23.6
					c0-3.9,0-7.9-0.2-11.8c-0.1-2-0.3-3.9-0.4-5.8c-0.1-1.9-0.2-3.8-0.1-5.9c1.3,1.6,2,3.7,2.3,5.6c0.4,2,0.5,4,0.6,6
					C868,438.6,868.1,442.5,868.1,446.5z"/>
				<path class="st6" d="M875,517.2c-3,0.7-6,1-9,1.2c-3,0.4-6,0.6-9,0.8c-3,0.4-6,0.8-8.9,1.2c-3,0.4-5.9,1-8.9,1.5
					c-5.3,1-10.5,2.2-15.7,3.4c-6,1.5-12,3.1-17.9,4.8c-0.5,0.1-1,0.3-1.5,0.4c-11.6,3.4-23,7.2-34.3,11.4
					c-5.6,2.1-11.3,4.3-16.8,6.7c-1.4,0.6-2.6,1.2-4.1,2c-1.5,0.7-3,1.1-4.5,1.4c-2.8,0.5-5.5,0.5-8.3,0.2c-0.1-0.5-0.3-0.9-0.4-1.3
					c2.8,0.3,5.6,0.2,8.3-0.4c1.4-0.3,2.8-0.7,4.1-1.4c1.2-0.6,2.7-1.5,4-2.1c5.5-2.6,11.1-4.9,16.8-7.1
					c11.3-4.4,22.8-8.3,34.4-11.8c11.6-3.5,23.4-6.4,35.3-8.7c3-0.5,6-1.1,9-1.5c3-0.4,6-0.8,9-1.2c2.5-0.2,5-0.4,7.5-0.5
					c0,0.3-0.1,0.7-0.1,1l1.3,0.2c0.1-0.4,0.1-0.8,0.2-1.2c0.1,0,0.2,0,0.3,0C869,516.3,872,516.6,875,517.2z"/>
				<path class="st6" d="M865.6,516.2c0,0.4-0.1,0.8-0.2,1.2l-1.3-0.2c0-0.3,0.1-0.7,0.1-1C864.7,516.3,865.2,516.3,865.6,516.2z"/>
				<path class="st6" d="M864.5,580.8c0.1,0.5,0.2,0.9,0.4,1.4l-1,0c-2.5,0-4.9,0.1-7.3,0.2c-2.4,0.2-4.9,0.3-7.3,0.5
					c-9.8,0.9-19.5,2.4-29.1,4.2c-9.7,1.8-19.2,4-28.9,5.8c-1.2,0.2-2.4,0.5-3.7,0.6l-1.8,0.3l-1.9,0.2c-1.2,0.1-2.5,0.2-3.7,0.3
					c-1.2,0.1-2.5,0.1-3.7,0.1c-4.9,0.2-9.8,0.2-14.8,0.2c-9.1,0-18.2-0.1-27.2-0.2c-0.1-0.2-0.1-0.4-0.1-0.7l-1.3,0
					c0,0.2,0,0.4-0.1,0.6c-10.1-0.2-20.2-0.4-30.3-0.6l0.1,0c-0.7,0-1.5,0-2.2-0.2c-0.1-0.3-0.1-0.6-0.2-1l-1.3,0.2
					c0,0.1,0,0.2,0,0.3c-2-0.8-3.7-2.3-5-4c-1-1.3-1.8-2.8-2.4-4.2c-0.7-1.5-1.3-2.9-1.9-4.4c-2.4-5.9-4.7-11.8-7-17.8l-3.3-8.9
					c-0.6-1.5-1.1-3-1.7-4.4c-0.7-1.4-1.5-2.7-2.4-4.1c-3.3-5.4-6.9-10.7-10.4-15.9c-0.9-1.3-1.8-2.6-2.7-3.9l-0.7-0.9
					c-0.3-0.4-0.5-0.8-0.6-1.3c-0.2-0.9-0.2-1.7-0.2-2.5c0.1-1.7,0.4-3.3,0.9-4.8c0.3-0.8,0.5-1.6,1-2.3c0.4-0.6,0.8-1.4,1.5-2
					c0.1-0.2,0.3-0.3,0.5-0.4c0.1,0.2,0.3,0.3,0.4,0.5l1-0.8c-0.1-0.1-0.1-0.2-0.2-0.2c0.3-0.1,0.6-0.1,0.9,0c1,0.1,1.7,0.6,2.4,1.1
					c1.3,1,2.4,2.3,3.3,3.6c1.9,2.5,4,4.9,6.1,7.3c4.2,4.7,8.6,9.3,13.1,13.8c1.1,1.1,2.4,2.2,3.3,3.5c1,1.3,1.8,2.7,2.6,4.1
					c1.5,2.9,2.5,6,2.8,9.1c-1.7-6.1-4.7-11.9-9.5-16c-4.5-4.5-8.9-9.1-13.2-13.8c-2.1-2.4-4.2-4.8-6.1-7.4c-1-1.3-1.9-2.5-3.1-3.4
					c-0.6-0.4-1.2-0.8-1.9-0.9c-0.6-0.1-1.2,0.2-1.7,0.7c-0.5,0.5-0.8,1.1-1.4,1.9c-0.4,0.5-0.6,1.3-0.9,2c-0.4,1.5-0.7,3-0.8,4.5
					c0,0.8,0,1.5,0.2,2.2c0.1,0.3,0.2,0.6,0.4,0.9l0.7,1c0.9,1.3,1.8,2.6,2.8,3.9c3.6,5.3,7.1,10.5,10.5,15.9
					c0.8,1.4,1.7,2.7,2.4,4.2c0.7,1.5,1.2,3,1.8,4.5l3.4,8.9c2.2,5.9,4.5,11.9,7,17.7c0.6,1.5,1.2,2.9,1.9,4.4
					c0.6,1.4,1.4,2.8,2.3,4c0.9,1.2,2,2.3,3.3,3c1.3,0.7,2.8,1.2,4.2,1.1h0.1h0c19.7,0.5,39.3,0.8,59,0.8c4.9,0,9.8-0.1,14.7-0.2
					c1.2,0,2.4-0.1,3.7-0.2c1.2-0.1,2.4-0.1,3.7-0.2l1.8-0.2l1.8-0.3c1.2-0.2,2.4-0.4,3.6-0.6c9.6-1.9,19.2-4.1,28.9-5.9
					c9.6-1.8,19.3-3.4,29-4.2c0.1,0,0.2,0,0.2,0c2.4-0.2,4.9-0.4,7.4-0.5c2.5-0.1,4.9-0.2,7.4-0.2L864.5,580.8z"/>
				<path class="st6" d="M848.5,259.4c1.4,4,1.6,8.3,0.2,12c-0.4-1.9-1-3.7-1.7-5.4c-0.7-1.7-1.6-3.2-2.5-4.6
					c-1.9-2.8-4.4-5-7.2-6.8c-1.4-0.8-2.9-1.6-4.4-2.2c-1.5-0.7-3.2-1.2-4.8-1.8c-3.3-1.1-6.8-2.1-10.7-3.7c1.8-1.1,3.8-1.7,5.8-2.1
					c2-0.3,4.1-0.4,6.1-0.2c4.1,0.5,8.2,2,11.6,4.6c0.9,0.6,1.7,1.3,2.4,2.1c0.8,0.7,1.5,1.6,2.1,2.4
					C846.7,255.6,847.8,257.4,848.5,259.4z"/>
				<path class="st6" d="M805.5,69.2l0.2,0.3c-0.4,0.6-0.2,0.8-0.6,1.6l-0.1,1.4l-0.1,3.2l-3.6-4.7c-0.3-0.4-0.5-0.8-0.8-1.4
					c-0.1-0.3-0.4-0.7-0.5-1l2-0.5h0L805.5,69.2z"/>
				<path class="st6" d="M805.6,69.3l-0.1,0l-1-2l-2.5,0.9c0.9-0.5,1.9-1.1,2.8-1.6c0.2,0.4,0.3,0.7,0.5,1.1
					C805.5,68.2,805.3,68.4,805.6,69.3z"/>
				<polygon class="st6" points="804.5,67.2 805.5,69.2 802,68.1 				"/>
				<path class="st6" d="M804.3,65.5c0.2,0.3,0.3,0.6,0.5,0.9c-0.9,0.5-1.9,1.1-2.8,1.6h0l-2,0.5c-0.1-0.3-0.2-0.5-0.4-0.8
					c-0.5-1.1-1.1-2.1-1.8-3c-1.4-1.9-3.1-3.5-5-4.8c-4-2.5-8.9-3.5-13.9-3.2c-1.3,0.1-2.5,0.3-3.8,0.4c-0.6,0-1.2,0.2-1.8,0.3
					c-0.6,0.1-1.2,0.2-1.8,0.4c-2.4,0.6-4.9,1.5-7.3,2.5c-4.8,2-9.5,4.4-14,7c-9.2,5.2-18,11-26.7,17.1c-8.6,6.1-17,12.4-25.2,18.9
					c0-0.1,0-0.2,0-0.3l-0.7-0.8c8-6.8,16.1-13.4,24.5-19.7c8.5-6.4,17.2-12.5,26.3-18.1c4.6-2.8,9.3-5.4,14.2-7.6
					c2.5-1.1,5-2.2,7.7-2.9c0.7-0.2,1.3-0.4,2-0.5c0.7-0.2,1.4-0.3,2.1-0.4c1.4-0.2,2.8-0.4,4.1-0.6c5.6-0.5,11.6,0.4,16.7,3.4
					c2.5,1.5,4.8,3.6,6.6,5.9C802.8,62.9,803.6,64.2,804.3,65.5z"/>
				<path class="st6" d="M776.7,297.3c-2.4,2.6-5.7,4.3-9.2,5.2c-3.5,0.9-7.3,0.8-10.9,0l-0.7-0.2l-0.7-0.2l-1.3-0.4
					c-0.9-0.4-1.7-0.7-2.5-1.2c-1.6-0.9-3.2-2.1-4.5-3.4c-2.5-2.7-4.4-6.1-4.4-9.7c2,2.9,4.4,5.1,6.9,6.8c2.6,1.7,5.4,2.9,8.3,3.7
					c3,0.7,6.1,1.1,9.2,1C770.1,298.7,773.3,298.2,776.7,297.3z"/>
				<path class="st6" d="M751.1,213.8c0.9,1.7,1.4,3.7,1.2,5.6c-2.6-2.7-5.1-4.6-7.8-5.9c-2.6-1.3-5.5-2.1-8.6-2.4
					c-3.2-0.3-6.5-0.3-9.8,0.1c-3.3,0.4-6.5,1-9.7,2.7c1.9-3.1,5.3-5.2,8.8-6.5c3.5-1.3,7.2-1.8,11-1.8c3.8,0.1,8,1.1,11.1,3.7
					C748.9,210.5,750.2,212.1,751.1,213.8z"/>
				<path class="st6" d="M745.7,638.3l-2.2,0.8c-0.1-0.2-0.2-0.5-0.3-0.7l-1.2-0.2c-0.8,0.8-1.3,1.6-1.6,2.5c-0.7-1.8-1.3-3.6-2-5.5
					c-1.1-3.3-2.1-6.7-2.9-10.1c-0.7-3.4-1.4-6.9-1.9-10.3c-0.9-6.7-1.3-13.5-0.7-20.3c0.5,0,1,0,1.5,0c2.7,13.3,5.5,26.3,9.6,38.9
					C744.5,635,745.1,636.7,745.7,638.3z"/>
				<path class="st6" d="M743.5,639.2c0.7,2,0.1,3.8-0.2,5.6l-0.4,2.3c-1-2.1-1.8-4.2-2.6-6.4c0.3-0.9,0.8-1.7,1.6-2.5l1.2,0.2
					C743.3,638.7,743.4,639,743.5,639.2z"/>
				<path class="st6" d="M742.9,647.1l-0.7,3.8l-2.2,12.2c-1.5,8.1-3,16.2-4.5,24.3l-4.7,24.3c-1.6,8.1-3.2,16.2-4.9,24.2l-1.2-0.2
					c1.1-8.2,2.4-16.3,3.7-24.4l3.9-24.4c1.3-8.1,2.7-16.3,4.1-24.4l2.1-12.2l1.1-6.1c0.2-1.1,0.3-2.3,0.7-3.4
					C741.1,642.9,742,645,742.9,647.1z"/>
				<path class="st6" d="M736.7,554l0.1,0.2l-0.1,0.2c-0.8,2.7-1.8,5.2-3.1,7.7c-0.6,1.2-1.3,2.4-2.1,3.6c-0.8,1.1-1.7,2.2-2.9,2.9
					c1.2-0.8,2-1.9,2.7-3c0.7-1.2,1.3-2.4,1.8-3.6c1-2.5,1.8-5,2.4-7.6c0,0.1,0,0.1,0.1,0.1v-0.3c0,0.1,0,0.1-0.1,0.2
					c-0.6-2-1.2-3.9-1.9-5.8c-0.3-1-0.7-2-1.1-2.9c-0.4-1-0.8-1.9-1.3-2.7c-1.1-1.6-2.6-3.2-4-4.7c-1.4-1.5-3-2.9-4.5-4.4
					c-3-2.9-6.1-5.7-9.3-8.5l-1.2-1l-0.6-0.5c-0.2-0.2-0.5-0.4-0.6-0.6c-0.8-0.8-1.4-1.6-2.1-2.4l-4-4.9c-1.3-1.6-2.7-3.2-4.1-4.8
					c-0.7-0.7-1.4-1.5-2.2-2.1c-0.9-0.7-1.7-1.4-2.4-2.1c-3.1-2.9-6.2-5.8-9.2-8.7l-9.1-8.8l-4.5-4.4c-1.5-1.5-3.2-2.7-4-4.9
					c2.2,0.8,3.5,2.5,5,3.9l4.6,4.4l9.2,8.7c3.1,2.9,6.1,5.8,9.2,8.6c0.8,0.7,1.6,1.4,2.3,2c1,0.7,1.6,1.5,2.4,2.3
					c1.4,1.6,2.8,3.2,4.1,4.8l4,4.9c0.4,0.5,0.8,1,1.2,1.4c0.3,0.3,0.6,0.6,0.8,0.9c0.2,0.2,0.3,0.3,0.5,0.5l0.6,0.5l1.2,1.1
					c3.2,2.8,6.3,5.6,9.3,8.6c1.5,1.5,3,3,4.5,4.5c1.4,1.6,2.9,3.1,4.1,5c0.6,1,1,2,1.4,3c0.4,1,0.7,2,1,3c0.3,1,0.6,2,0.9,3
					c-0.1,0-0.3,0-0.4-0.1l-0.2,1.3c0.3,0.1,0.7,0.1,1,0.1C736.4,552.9,736.6,553.5,736.7,554z"/>
				<path class="st6" d="M735.9,550.9c0.1,0.4,0.3,0.9,0.4,1.3c-0.3,0-0.7-0.1-1-0.1l0.2-1.3C735.6,550.9,735.7,550.9,735.9,550.9z"
					/>
				<path class="st6" d="M735.5,554.1v0.3c0-0.1,0-0.1-0.1-0.1C735.5,554.2,735.5,554.1,735.5,554.1z"/>
				<path class="st6" d="M734.2,593.8c0.1,0.2,0.1,0.4,0.1,0.7c-0.5,0-1,0-1.5,0c0-0.2,0-0.4,0.1-0.6L734.2,593.8z"/>
				<path class="st6" d="M700.3,592.7c0.1,0.3,0.2,0.6,0.2,1c-0.5-0.1-1-0.2-1.4-0.4c0-0.1,0-0.2,0-0.3L700.3,592.7z"/>
				<path class="st6" d="M698.4,103.1c0,0.1,0,0.2,0,0.3c-0.1,0.1-0.1,0.1-0.2,0.2L698.4,103.1z"/>
				<path class="st6" d="M694,284.4l0.7,1.1c-0.2,1.1-8.2,2.7-8.9,3.1c-0.1-0.2-0.1-0.4-0.1-0.5c-0.2-0.9-0.3-1.8-0.5-2.8
					C685.6,285.2,693.5,284.3,694,284.4z"/>
				<path class="st6" d="M691.2,510.4c3.5,2.7,7,5.5,10.4,8.4c-3.8-2.4-7.4-4.9-11.1-7.4l-2.7-2c-0.9-0.7-1.8-1.5-2.6-2.2
					c-1.6-1.6-3.1-3.2-4.6-4.9c-6-6.6-11.6-13.5-17.4-20.3c-1.5-1.7-2.9-3.4-4.4-4.8c-0.8-0.7-1.6-1.3-2.5-1.5
					c-0.8-0.2-1.5,0.1-2.2,0.8c-0.6,0.7-1.2,1.8-1.6,2.6c-0.3,0.8-0.4,1.9-0.4,3c0,2.1,0.4,4.3,0.8,6.4c0.5,2.1,1.1,4.2,1.8,6.3
					c0.7,2,1.9,3.8,3.2,5.7c2.4,3.5,5.1,7,7.9,10.3c-0.4,0.1-0.9,0.3-1.2,0.5c-2.7-3.3-5.4-6.6-7.8-10c-1.3-1.8-2.6-3.8-3.4-5.9
					c-0.8-2.1-1.5-4.3-2-6.5c-0.5-2.2-0.8-4.5-0.9-6.8c0-1.2,0.1-2.3,0.6-3.6c0.1-0.3,0.3-0.6,0.4-0.8l0.4-0.7
					c0.2-0.3,0.3-0.6,0.5-0.8c0.2,0.2,0.4,0.4,0.6,0.5c0-0.4,0-0.8-0.1-1.2c0.4-0.5,0.9-0.9,1.6-1.2c0.7-0.3,1.5-0.3,2.1-0.1
					c1.3,0.4,2.3,1.1,3.2,1.9c1.7,1.6,3.1,3.3,4.6,5c5.7,6.8,11.3,13.7,17.2,20.4c1.5,1.6,3,3.3,4.5,4.8c0.8,0.8,1.6,1.5,2.4,2.2
					L691.2,510.4z"/>
				<path class="st6" d="M685.8,288.6c-0.1,0.1-0.2,0.1-0.2,0.2c-0.7,0.5-1.4,1.1-2.2,1.6c-1.4,1.1-2.8,2.3-4.1,3.5
					c-2.7,2.4-5.2,5-7.6,7.7c-4.7,5.5-8.7,11.6-11.4,18.2c-0.4,0.8-0.6,1.7-0.9,2.5l-0.8,2.5l-0.7-0.2c0.6-1.7,1.1-3.4,1.5-5.1
					l-1.2-0.5c-0.8,1.2-1.6,2.5-2.3,3.8l0.5-1.5c0.3-0.9,0.6-1.8,1-2.7c2.8-7,7-13.4,11.9-19.1c2.5-2.8,5.1-5.5,7.9-8
					c1.4-1.2,2.8-2.5,4.3-3.6c0.7-0.6,1.5-1.2,2.2-1.7c0.5-0.4,1-0.7,1.6-0.8c0.1,0.9,0.3,1.8,0.5,2.8
					C685.7,288.2,685.7,288.4,685.8,288.6z"/>
				<path class="st6" d="M665.8,510.8c0.1,0.1,0.1,0.2,0.2,0.2l-1,0.8c-0.1-0.2-0.3-0.3-0.4-0.5
					C664.9,511.1,665.3,510.9,665.8,510.8z"/>
				<path class="st6" d="M658.2,319l1.2,0.5c-0.5,1.7-1,3.4-1.5,5.1c-0.7,2.2-1.5,4.3-2.3,6.4c-0.7,1.9-1.4,3.8-2.2,5.7
					c0.1-0.5,0.1-1.1,0.1-1.6c0.2-1.9,0.5-3.7,0.8-5.6c0.4-1.9,0.8-3.7,1.3-5.6l0.4-1.2C656.6,321.5,657.4,320.3,658.2,319z"/>
				<path class="st6" d="M655.8,322.8l-0.4,1.2c-0.5,1.8-0.8,3.7-1.3,5.6c-0.3,1.9-0.6,3.7-0.8,5.6c0,0.5-0.1,1.1-0.1,1.6
					c-0.7,1.8-1.5,3.7-2.3,5.5c-1.2,2.6-2.3,5.3-3.5,7.9l-1.6-0.7l-0.1-1.3c-0.7,0-1.4,0-2.1-0.1c1.1-2.5,2.2-5.1,3.3-7.6
					c1.7-3.7,3.4-7.3,5.2-10.9C653.3,327.3,654.5,325,655.8,322.8z"/>
				<path class="st6" d="M653,476.6c-0.2-0.2-0.4-0.3-0.6-0.5c0.2-0.2,0.3-0.4,0.5-0.6c0,0,0,0,0,0C653,475.8,653,476.2,653,476.6z"
					/>
				<path class="st6" d="M645.8,349.4l1.6,0.7c-2.1,4.7-4.2,9.4-6.4,14.1c-3.3,7.3-6.7,14.6-10.2,21.9c-1.7,3.6-3.5,7.3-5.3,10.9
					c-1.6,3.3-3.2,6.6-4.9,9.8c-0.3-0.6-0.6-1.1-0.8-1.7c1.2-3,2.4-6.1,3.6-9.1c1.5-3.8,3-7.5,4.5-11.2c3.1-7.4,6.2-14.9,9.3-22.3
					c1.9-4.4,3.8-8.8,5.7-13.2C643.9,349.5,644.9,349.5,645.8,349.4z"/>
				<path class="st6" d="M645.7,348.2l0.1,1.3c-0.9,0.1-1.8,0.1-2.8,0c0.2-0.5,0.4-0.9,0.6-1.4C644.3,348.2,645,348.2,645.7,348.2z"
					/>
				<path class="st6" d="M619.9,405.2c0.3,0.6,0.6,1.1,0.8,1.7c-0.2,0.3-0.3,0.7-0.5,1l-1.2-0.5
					C619.3,406.6,619.6,405.9,619.9,405.2z"/>
				<path class="st6" d="M618.1,219.6C618.1,219.6,618.1,219.6,618.1,219.6C618.1,219.6,618.1,219.6,618.1,219.6
					C618.1,219.6,618.1,219.6,618.1,219.6L618.1,219.6z"/>
			</g>
			<g>
				<path class="st13" d="M864.5,580.8c0.1,0.5,0.2,0.9,0.4,1.4"/>
			</g>
		</g>
	</g>
	<g>
		<path class="st6" d="M836.6,227c1.4,0.7,1.9,1.2,2.1,1.8c0.2,0.7,0.3,1.3,0.5,2c0.4,1.3,1,2.6,1.6,3.9c1.3,2.5,2.9,4.9,4.7,7.2
			l1.4,1.7l1.5,1.6l0.7,0.8l0.8,0.8l1.6,1.5c1.1,1,2.3,1.9,3.4,2.9c1.2,0.9,2.4,1.8,3.6,2.8c-1.4-0.6-2.8-1.3-4.1-1.9
			c-1.3-0.8-2.6-1.5-3.9-2.3c-2.5-1.7-5-3.6-7.1-5.9c-2.2-2.2-4.1-4.7-5.6-7.5c-0.7-1.4-1.4-2.9-1.9-4.4c-0.3-0.8-0.5-1.5-0.7-2.3
			C835.1,228.8,835.3,227.8,836.6,227z"/>
	</g>
	<g>
		<path class="st6" d="M754.6,184.8c0.6,1.5,0.2,2.3-0.4,2.9c-0.6,0.5-1.2,1.1-1.9,1.5c-1.3,1-2.7,1.8-4.1,2.5
			c-2.8,1.4-5.9,2.3-8.9,2.9c-3.1,0.6-6.2,0.7-9.2,0.7c-1.5-0.1-3.1-0.2-4.6-0.4c-1.5-0.2-3-0.5-4.5-0.8c1.5-0.1,3-0.2,4.5-0.2
			c1.5-0.2,3-0.2,4.5-0.4l2.2-0.3l1.1-0.2l1.1-0.2l2.2-0.4l2.1-0.6c2.8-0.8,5.5-1.8,8-3.1c1.2-0.7,2.5-1.4,3.6-2.3
			c0.6-0.4,1.1-0.9,1.6-1.3C752.4,184.7,753.1,184.5,754.6,184.8z"/>
	</g>
	<g>
		<path class="st6" d="M807,528.9c0.7-1,1.6-1.5,2.5-1.7c0.9-0.2,1.8-0.2,2.6,0l1.2,0.3l1.2,0.5l1.2,0.5c0.4,0.2,0.7,0.4,1.1,0.6
			c3,1.5,5.4,3.5,7.8,5.6c1.2,1.1,2.2,2.3,3.2,3.4c0.6,0.6,1,1.2,1.5,1.8l1.4,1.8c0.5,0.6,1,1.2,1.4,1.9l1.3,1.9
			c0.8,1.3,1.7,2.5,2.5,3.9l2.2,4l1.1,2l1,2.1c1.2,2.8,2.6,5.5,3.6,8.3l1.6,4.2l0.8,2.1c0.3,0.7,0.5,1.4,0.7,2.2
			c0.9,2.9,1.8,5.8,2.6,8.6l-0.5,0.2c-1.3-2.7-2.6-5.4-3.8-8.2l-0.9-2l-1-2l-2-4c-1.2-2.7-2.8-5.3-4.2-7.9l-1.1-2l-1.2-1.9l-2.3-3.8
			c-3.3-4.8-6.8-9.6-11-13.4c-2.1-1.8-4.3-3.7-6.8-4.8c-0.3-0.2-0.6-0.3-0.9-0.5l-0.9-0.4l-0.9-0.4l-0.9-0.2
			c-0.6-0.2-1.2-0.4-1.8-0.8c-0.6-0.4-1.2-0.8-2-1.6L807,528.9z"/>
	</g>
	<g>
		<path class="st6" d="M960.1,546.4c3.5,1,7.2,1.1,10.8,0.3c3.6-0.8,6.9-2.4,9.9-4.6c3-2.2,5.6-4.9,7.4-8c0.9-1.5,1.4-3.1,1.6-4.8
			c0.2-1.7,0-3.4-0.5-5c-0.3-0.8-0.6-1.6-1-2.1c-0.2-0.3-0.5-0.5-0.5-0.5c0,0,0.1,0,0.2,0.1c0.1,0,0.4,0,0.6-0.1
			c0.2-0.1,0.4-0.3,0.4-0.3c0.1-0.1,0.1-0.1,0.1-0.1c-0.3,0.9-0.8,1.4-1.2,1.9c-0.5,0.4-0.9,0.8-1.4,1.1c-1,0.6-2,1.1-3,1.4
			c-2.1,0.7-4.4,0.9-6.6,0.5c-2.2-0.4-4.4-1.6-5.9-3.3c-1.6-1.6-2.7-3.5-3.4-5.5c-0.5-1.2-0.6-2.4-0.6-3.6c0-1.1,0.2-2.2,0.4-3.2
			c0.9-4.1,2.6-7.7,4.3-11.3c3.5-7.1,7.6-13.7,11.8-20.2c4.2-6.5,8.6-13,12.9-19.4c4.3-6.4,8.7-12.8,12.7-19.3c1-1.6,2-3.3,2.9-4.9
			l0.7-1.2c0.2-0.4,0.4-0.7,0.5-1.2c0.3-0.8,0.6-1.6,0.9-2.5c1-3.5,1.4-7.2,1.6-11c0.4-7.5,0-15.2-0.8-22.8
			c-0.8-7.6-2-15.2-3.6-22.7c-1.5-7.5-3.4-15-5.7-22.3c-2.3-7.3-5-14.5-8.4-21.2c-1.7-3.3-3.7-6.6-6-9.4c-0.6-0.7-1.2-1.4-1.8-2
			c-0.3-0.3-0.6-0.6-0.9-0.9l-1.1-1c-1.4-1.3-2.9-2.6-4.3-4c-5.6-5.4-11-11-16.4-16.6c-10.6-11.3-20.9-22.9-31.1-34.7l-0.1-0.1
			l-0.1-0.1c-1.1-1.6-1.8-3.1-2.6-4.7c-0.7-1.6-1.4-3.2-2-4.8c-1.1-3.3-2-6.7-2.4-10.2c-0.4-3.5-0.4-7,0-10.5c0.2-1.7,0.5-3.5,1-5.2
			c0.4-1.7,1-3.4,1.5-4.9c2.2-6.3,4.6-12.4,6.6-18.7c2.1-6.2,3.9-12.5,5.4-18.9c2.9-12.7,4.1-25.8,2.2-38.5c-0.5-3.2-1.2-6.3-2-9.4
			c-0.9-3.1-2-6.1-3.2-9.1c-2.5-6-5.5-11.8-8.8-17.4C924.5,98.3,916.4,88,907,79c-4.7-4.5-9.7-8.7-15.1-12.3
			c-5.4-3.7-11.1-6.8-17.1-9.1c-6-2.3-12.3-3.9-18.7-4.2c-3.2-0.2-6.4-0.1-9.6,0.3c-3.3,0.4-6.5,0.8-9.7,1.4
			c-6.4,1.2-12.8,2.7-18.7,5.3c-2.9,1.3-5.8,2.8-8.2,4.7c-1.2,1-2.3,2-3.2,3.2c-0.4,0.6-0.9,1.2-1.2,1.8c-0.2,0.3-0.3,0.6-0.4,1
			c-0.1,0.2-0.1,0.3-0.1,0.5l-0.1,0.3l-3-0.2c0-0.4,0.1-0.6,0.1-0.9c0.1-0.2,0.1-0.5,0.2-0.7c0.2-0.5,0.3-0.9,0.5-1.3
			c0.4-0.8,0.9-1.6,1.5-2.4c1.1-1.4,2.4-2.7,3.7-3.8c2.7-2.2,5.8-3.9,8.9-5.2c6.2-2.8,12.8-4.4,19.4-5.7c3.3-0.6,6.6-1.1,9.9-1.6
			c3.3-0.5,6.8-0.7,10.2-0.5c6.8,0.3,13.6,1.9,19.9,4.3c6.3,2.4,12.3,5.7,17.9,9.4c5.6,3.8,10.8,8,15.7,12.7
			c9.8,9.2,18.2,19.8,25.2,31.2c3.5,5.7,6.7,11.7,9.2,17.9c1.3,3.1,2.4,6.3,3.4,9.6c0.9,3.3,1.6,6.6,2.2,10
			c2.1,13.5,0.8,27.2-2.2,40.3c-1.5,6.6-3.4,13-5.5,19.3c-2.1,6.3-4.4,12.6-6.6,18.8c-0.5,1.6-1.1,3-1.4,4.5c-0.4,1.5-0.7,3-0.9,4.6
			c-0.4,3.1-0.4,6.2,0,9.3c0.4,3.1,1.1,6.2,2.1,9.1c0.5,1.5,1.1,2.9,1.8,4.4c0.3,0.7,0.7,1.4,1,2.1c0.4,0.7,0.8,1.4,1.1,1.9
			l-0.2-0.2c10,11.7,20.3,23.3,30.8,34.6c5.3,5.6,10.6,11.2,16.2,16.5c1.4,1.4,2.8,2.6,4.2,3.9l1.1,1c0.4,0.4,0.8,0.7,1.1,1.1
			c0.7,0.8,1.4,1.5,2.1,2.3c2.6,3.2,4.6,6.7,6.5,10.2c3.6,7.1,6.4,14.5,8.7,21.9c2.3,7.5,4.2,15.1,5.8,22.7
			c1.6,7.7,2.8,15.4,3.5,23.2c0.8,7.8,1.2,15.6,0.7,23.6c-0.3,4-0.7,7.9-1.9,11.9c-0.3,1-0.6,2-1.1,3c-0.2,0.5-0.5,1-0.7,1.5
			l-0.7,1.3c-1,1.7-2,3.4-3,5.1c-4.1,6.6-8.6,13-12.9,19.4c-4.4,6.4-8.8,12.8-13,19.2c-4.2,6.5-8.3,13-11.7,19.8
			c-1.7,3.4-3.3,6.9-4.1,10.3c-0.4,1.7-0.5,3.5-0.1,4.7c0.6,1.6,1.5,3.2,2.6,4.3c1.1,1.2,2.5,2,4.1,2.3c1.5,0.3,3.2,0.2,4.8-0.3
			c0.8-0.3,1.6-0.6,2.2-1c0.3-0.2,0.6-0.4,0.9-0.7c0.3-0.2,0.4-0.4,0.4-0.5c0.1-0.2,0.2-0.5,0.4-0.8c0.2-0.3,0.5-0.6,1-0.8
			c0.5-0.2,1-0.2,1.3-0.1c0.4,0.1,0.7,0.2,0.9,0.3c0.8,0.5,1.2,1,1.6,1.5c0.7,1,1.1,2,1.5,3.1c0.7,2.1,0.9,4.3,0.6,6.5
			c-0.2,2.2-1,4.3-2.1,6.1c-2.1,3.6-5,6.5-8.3,8.9c-3.3,2.4-7.1,4.1-11.1,5c-4,0.9-8.3,0.7-12.2-0.4L960.1,546.4z"/>
	</g>
	<g>
		<path class="st6" d="M699.1,102.6c-1,5-2.3,9.9-3.6,14.8c-1.4,4.9-2.9,9.7-4.9,14.4c-1,2.3-2.1,4.7-3.5,6.9
			c-1.3,2.1-2.4,4.3-3.6,6.6c-2.3,4.5-4.3,9-6.2,13.7c-1.9,4.6-3.6,9.3-5.1,14.1c-0.7,2.4-1.4,4.8-1.9,7.2c-0.5,2.4-0.9,4.8-0.9,7.2
			c0.1,5,0.4,10,0.8,15l1.1,15.1c0.4,5,0.7,10.1,0.9,15.2c0.2,5.1,0.4,10.1,0.1,15.3c-0.4,5.2-1.3,10.2-2.3,15.2
			c-0.9,5-2,9.9-3.1,14.9c-4.4,19.7-9.3,39.3-14.7,58.8l-2.9-0.8c4.8-19.6,9.5-39.2,13.8-58.9c1.1-4.9,2.1-9.8,3-14.8
			c0.9-4.9,1.8-9.9,2.2-14.7c0.2-2.4,0.2-4.9,0.2-7.4c0-2.5-0.1-5-0.1-7.5c-0.2-5-0.4-10-0.7-15.1l-1-15.1c-0.3-5-0.6-10.1-0.6-15.2
			c0-2.7,0.5-5.3,1-7.8c0.6-2.5,1.3-5,2-7.4c1.6-4.9,3.4-9.6,5.4-14.3c2-4.7,4.2-9.3,6.6-13.8c1.2-2.2,2.4-4.5,3.8-6.7
			c1.4-2.1,2.5-4.2,3.5-6.5c2-4.5,3.7-9.3,5.2-14.1c1.5-4.8,2.8-9.7,4-14.5L699.1,102.6z"/>
	</g>
	<g>
		<path class="st6" d="M866.4,300.8c0.3,0.8,0.2,1.3,0,1.9c-0.2,0.5-0.3,1.1-0.5,1.6c-0.3,1.1-0.4,2.2-0.4,3.3
			c0,1.1,0.3,2.1,0.7,3.1c0.5,0.9,1.2,1.7,2.1,2.2c1.8,1.1,4.1,1.3,6.4,1.3c2.3,0,4.6-0.3,6.8-0.7c4.5-0.8,9-2.2,13.1-4.2
			c4.1-1.9,8.1-4.4,11.1-7.8c1.5-1.7,2.7-3.6,3.5-5.6c0.8-2.1,1.2-4.3,1.4-6.6c0.4-4.5-0.2-9.1-2.2-13.1c-1-2-2.3-3.8-3.9-5.2
			c-1.6-1.4-3.6-2.4-5.8-2.8c-2.1-0.4-4.4-0.3-6.6,0.1c-2.2,0.4-4.3,1.2-6.4,2.2l-0.9-1.8c2.2-1,4.4-1.9,6.8-2.4
			c2.4-0.5,4.9-0.6,7.4-0.2c2.5,0.5,4.8,1.6,6.7,3.2c1.9,1.6,3.4,3.7,4.5,5.9c2.1,4.5,2.8,9.4,2.3,14.3c-0.2,2.4-0.7,4.8-1.6,7.1
			c-0.9,2.3-2.2,4.5-3.9,6.3c-3.3,3.6-7.5,6.2-11.8,8.1c-4.4,1.9-8.9,3.3-13.6,4.1c-2.3,0.4-4.7,0.6-7.1,0.6c-1.2,0-2.4-0.1-3.6-0.3
			c-1.2-0.2-2.5-0.6-3.5-1.3c-1.1-0.7-2-1.7-2.6-2.8c-0.6-1.2-0.8-2.5-0.9-3.7c0-1.3,0.2-2.5,0.5-3.7c0.1-0.6,0.3-1.2,0.5-1.7
			C865.3,301.7,865.6,301.1,866.4,300.8z"/>
	</g>
	<g>
		<path class="st6" d="M882.4,301.5c0.6-0.5,1.1-0.8,1.6-1.1c0.5-0.3,0.9-0.7,1.2-1.2c0.6-0.9,0.6-2.2,0.4-3.3
			c-0.2-1.1-0.8-2.1-1.6-2.8c-0.8-0.8-2-1.3-3.1-1.7l0,0l-1.4-0.4l0.8-1.2c1.5-2.1,3-4,4.8-5.8c0.9-0.9,1.9-1.7,3-2.5
			c1.1-0.7,2.3-1.4,3.9-1.5c0.8,0,1.7,0.4,2.2,0.7c0.6,0.3,1.1,0.7,1.7,1.1c1,0.8,2,1.8,2.6,3c0.7,1.2,1.1,2.5,1.1,3.9
			c-0.1,1.4-0.8,2.8-1.9,3.4c0.4-1.2,0.5-2.3,0.4-3.4c-0.1-1.1-0.6-2.1-1.2-3c-0.6-0.9-1.4-1.7-2.2-2.4c-0.4-0.3-0.9-0.7-1.4-0.9
			c-0.6-0.3-0.8-0.4-1.2-0.4c-0.9,0-1.9,0.5-2.8,1.1c-0.9,0.6-1.8,1.4-2.7,2.2c-1.7,1.7-3.2,3.5-4.6,5.4l-0.6-1.5l0,0
			c0.8,0.2,1.5,0.5,2.1,0.8c0.7,0.3,1.3,0.8,1.9,1.3c1.2,1,2,2.6,2.1,4.1c0.1,0.8,0.1,1.5-0.1,2.3c-0.1,0.8-0.5,1.5-0.9,2.2
			c-0.5,0.6-1.1,1.2-1.8,1.5C884,301.9,883.1,301.9,882.4,301.5z"/>
	</g>
	<g>
		<path class="st6" d="M872.3,294.6c-7.4,8.4-15.4,16.1-23.9,23.2c-8.6,7-17.8,13.5-28.2,17.9c-2.6,1.1-5.3,2-8,2.8
			c-1.4,0.4-2.7,0.7-4.1,0.9c-1.4,0.3-2.8,0.4-4.2,0.6c-5.5,0.8-11,1.3-16.6,1.7c-11.1,0.8-22.3,0.9-33.4-0.8
			c-5.5-0.9-11.1-2.1-16.3-4.7c-5-2.7-9.4-6.2-13.7-9.8c-4.3-3.6-8.3-7.5-12.2-11.5c-3.8-4.1-7.5-8.3-10.8-12.8
			c-1.6-2.3-3.2-4.7-4.5-7.2c-0.7-1.3-1.3-2.6-1.8-4c-0.3-0.7-0.4-1.4-0.6-2.1l-0.5-2c-1.3-5.4-2.3-10.9-3.2-16.4
			c-1.6-11-2.5-22.3-0.8-33.5l2.7,0.4c-1.6,10.7-0.8,21.8,0.9,32.6c0.9,5.4,1.9,10.8,3.2,16.2l0.5,2c0.2,0.6,0.3,1.2,0.6,1.8
			c0.4,1.2,1,2.4,1.6,3.6c1.2,2.4,2.7,4.7,4.3,6.9c3.2,4.4,6.7,8.6,10.5,12.6c3.8,4,7.7,7.8,11.9,11.3c4.2,3.5,8.5,6.9,13.2,9.5
			c1.2,0.6,2.3,1.1,3.6,1.6c1.3,0.5,2.6,0.8,3.9,1.2c2.6,0.7,5.3,1.3,8,1.7c10.8,1.7,21.9,1.6,32.8,0.9c5.5-0.4,11-0.9,16.4-1.6
			c2.8-0.3,5.4-0.7,8-1.5c2.6-0.7,5.2-1.6,7.7-2.7c10-4.3,19.2-10.6,27.7-17.5c8.5-7,16.5-14.7,23.7-22.9L872.3,294.6z"/>
	</g>
	<g>
		<path class="st6" d="M797.1,143.4c-7.4,6.5-14.9,12.9-22.7,18.9c-3.9,3-7.9,5.9-12,8.7c-1,0.7-2.1,1.4-3.2,2
			c-1.1,0.7-2.1,1.3-3.2,1.9c-2.2,1.2-4.5,2.3-6.7,3.3c-9.1,4-18.3,7.4-27.6,10.7c-4.6,1.7-9.3,3.3-13.8,5.1
			c-1.1,0.4-2.2,0.9-3.2,1.4c-0.3,0.1-0.5,0.2-0.7,0.4l-0.7,0.5c-0.4,0.3-0.9,0.7-1.3,1.1c-0.8,0.8-1.5,1.6-2.1,2.6
			c-0.6,0.9-1.2,2-1.5,2.9l0-0.2c-1.9,9-3.6,18-5,27.1c-0.7,4.5-1.3,9.1-1.7,13.6c-0.2,2.3-0.4,4.5-0.4,6.8c-0.1,2.3,0,4.5,0.3,6.6
			l-2.6,0.4c-0.4-2.4-0.4-4.8-0.4-7.1c0-2.3,0.2-4.7,0.4-7c0.4-4.6,1-9.2,1.7-13.8c1.4-9.2,3-18.2,4.9-27.3l0-0.1l0-0.1
			c0.5-1.4,1.1-2.5,1.9-3.6c0.7-1.1,1.6-2.1,2.5-3.1c0.5-0.5,1-0.9,1.5-1.3l0.8-0.6c0.3-0.2,0.7-0.4,0.9-0.5
			c1.2-0.6,2.3-1.1,3.5-1.5c4.6-1.8,9.3-3.4,13.9-5.1c9.2-3.3,18.5-6.7,27.3-10.6c2.2-1,4.4-2.1,6.5-3.2c1.1-0.6,2.1-1.2,3.1-1.8
			c1-0.6,2.1-1.3,3.1-1.9c4-2.7,8-5.6,11.8-8.6c7.7-6,15.2-12.3,22.6-18.8L797.1,143.4z"/>
	</g>
	<path class="st14" d="M742.7,636.5c0,0,14,29.7,62,34.4s142.5-34.5,170.6-77.1"/>
	<g>
		<path class="st6" d="M658.3,437.3c-1,1.8-2.1,3.6-3.2,5.4l-3.3,5.4l-3.4,5.3l-1.7,2.6c-0.6,0.9-0.9,1.9-2.2,2.3l-1.5-1
			c-0.1-1.3,0.8-2,1.3-2.9l1.8-2.6l3.5-5.2l3.6-5.1c1.2-1.7,2.4-3.4,3.7-5.1L658.3,437.3z"/>
	</g>
	<g>
		<path class="st6" d="M696.8,481.4c1.7,3.5,3.2,7,4.8,10.5l4.6,10.5c1.5,3.5,3,7.1,4.4,10.6l2.1,5.4c0.3,0.9,0.7,1.8,1,2.7
			c0.2,0.5,0.4,0.9,0.5,1.4c0.1,0.5,0.1,1.1-0.2,1.6l-1.3,0.3c-0.6-0.3-0.8-0.7-1-1.1c-0.2-0.4-0.3-0.9-0.5-1.3
			c-0.3-0.9-0.7-1.8-1-2.7l-2.1-5.3l-4.4-10.6l-4.4-10.6c-1.4-3.6-2.9-7.1-4.3-10.7L696.8,481.4z"/>
	</g>
	<g>
		<path class="st6" d="M656.2,449.4c-0.4,2.5-0.8,5.1-1.1,7.6c-0.1,1.3-0.3,2.5-0.3,3.8c0,0.6,0,1.2,0.1,1.7c0,0.3,0.1,0.5,0.2,0.8
			l0.3,0.8c0.9,2.2,2.2,4.3,3.8,6.1c1.6,1.8,3.4,3.4,5.5,4.7c4.1,2.6,8.8,4,13.7,4.7c4.9,0.7,9.9,0.7,14.9,0.2
			c5-0.5,9.9-1.6,14.6-3.2c4.7-1.6,9.3-3.8,13.8-6.2c2.2-1.2,4.4-2.5,6.7-3.8c1.1-0.7,2.3-1.3,3.5-1.9c0.6-0.3,1.3-0.6,2-0.9
			c0.7-0.2,1.4-0.5,2.2-0.6c3-0.6,6.1-0.4,8.8,0.5c2.8,0.9,5.2,2.2,7.5,3.8c1.1,0.8,2.2,1.6,3.3,2.4c0.5,0.4,1,0.9,1.5,1.3l1.5,1.3
			c1.9,1.7,3.9,3.2,6,4.7c4.1,3,8.5,5.4,13.1,7.4c9.2,4,19.4,5.6,29.4,4.8c5-0.4,10-1.5,14.8-3c4.8-1.5,9.6-3.5,14-5.9
			c4.5-2.4,8.8-5.2,12.6-8.5c0.5-0.4,1-0.8,1.5-1.2l1.4-1.3c0.4-0.4,0.9-0.9,1.4-1.3l1.2-1.4c0.9-0.9,1.6-2,2.3-3
			c0.4-0.5,0.7-1,1-1.6c0.3-0.5,0.7-1,1.7-1.2c0.4,0.9,0.2,1.6-0.1,2.2c-0.3,0.6-0.6,1.2-1,1.7c-0.8,1.1-1.5,2.2-2.4,3.2l-1.3,1.5
			c-0.4,0.5-0.9,0.9-1.4,1.4l-1.4,1.4c-0.5,0.4-1,0.9-1.5,1.3c-3.9,3.5-8.3,6.5-12.8,9.1c-4.6,2.6-9.4,4.7-14.4,6.4
			c-5,1.7-10.1,3-15.4,3.5c-10.6,1.1-21.4-0.4-31.3-4.4c-4.9-2-9.6-4.6-13.9-7.7c-2.2-1.5-4.3-3.2-6.3-4.8l-1.5-1.2
			c-0.5-0.4-1-0.8-1.5-1.2c-1-0.8-2-1.5-3-2.2c-4-2.7-8.7-4.5-12.9-3.5c-0.5,0.1-1,0.3-1.6,0.5c-0.5,0.2-1,0.4-1.5,0.7
			c-1.1,0.6-2.2,1.2-3.3,1.8c-2.2,1.3-4.5,2.6-6.8,3.9c-4.6,2.5-9.4,4.8-14.5,6.6c-5,1.7-10.3,3-15.6,3.5c-5.3,0.5-10.7,0.4-16-0.4
			l-2-0.3c-0.7-0.1-1.3-0.3-2-0.5l-2-0.5l-1.9-0.7c-2.6-0.9-5-2.2-7.3-3.8c-2.3-1.6-4.3-3.5-6-5.7c-1.7-2.2-3-4.7-3.8-7.4l-0.3-1
			c-0.1-0.4-0.1-0.7-0.2-1.1c-0.1-0.8,0-1.5,0.1-2.2c0.2-1.4,0.4-2.7,0.7-3.9c0.6-2.6,1.3-5.1,2.1-7.5L656.2,449.4z"/>
	</g>
</g>
</svg>
